G04 EAGLE Gerber RS-274X export*
G75*
%MOMM*%
%FSLAX34Y34*%
%LPD*%
%INTop Copper*%
%IPPOS*%
%AMOC8*
5,1,8,0,0,1.08239X$1,22.5*%
G01*
%ADD10C,0.000000*%
%ADD11C,1.320800*%
%ADD12R,1.350000X0.400000*%
%ADD13C,1.358000*%
%ADD14C,2.250000*%
%ADD15C,1.879600*%
%ADD16C,1.408000*%
%ADD17P,1.429621X8X112.500000*%
%ADD18C,1.508000*%
%ADD19P,1.429621X8X292.500000*%
%ADD20C,1.422400*%
%ADD21P,1.539592X8X292.500000*%
%ADD22P,1.429621X8X22.500000*%
%ADD23P,1.429621X8X202.500000*%
%ADD24P,2.034460X8X112.500000*%
%ADD25R,2.540000X1.270000*%
%ADD26C,0.406400*%
%ADD27C,0.756400*%


D10*
X1000000Y0D02*
X1000000Y1000000D01*
X0Y1000000D01*
X0Y0D01*
X9525Y966470D02*
X9530Y966860D01*
X9544Y967249D01*
X9568Y967638D01*
X9601Y968026D01*
X9644Y968413D01*
X9697Y968799D01*
X9759Y969184D01*
X9830Y969567D01*
X9911Y969948D01*
X10001Y970327D01*
X10100Y970704D01*
X10209Y971078D01*
X10326Y971450D01*
X10453Y971818D01*
X10589Y972183D01*
X10733Y972545D01*
X10887Y972903D01*
X11049Y973257D01*
X11220Y973608D01*
X11399Y973953D01*
X11587Y974295D01*
X11784Y974631D01*
X11988Y974963D01*
X12200Y975290D01*
X12421Y975611D01*
X12649Y975927D01*
X12885Y976237D01*
X13128Y976541D01*
X13379Y976839D01*
X13637Y977131D01*
X13903Y977416D01*
X14175Y977695D01*
X14454Y977967D01*
X14739Y978233D01*
X15031Y978491D01*
X15329Y978742D01*
X15633Y978985D01*
X15943Y979221D01*
X16259Y979449D01*
X16580Y979670D01*
X16907Y979882D01*
X17239Y980086D01*
X17575Y980283D01*
X17917Y980471D01*
X18262Y980650D01*
X18613Y980821D01*
X18967Y980983D01*
X19325Y981137D01*
X19687Y981281D01*
X20052Y981417D01*
X20420Y981544D01*
X20792Y981661D01*
X21166Y981770D01*
X21543Y981869D01*
X21922Y981959D01*
X22303Y982040D01*
X22686Y982111D01*
X23071Y982173D01*
X23457Y982226D01*
X23844Y982269D01*
X24232Y982302D01*
X24621Y982326D01*
X25010Y982340D01*
X25400Y982345D01*
X25790Y982340D01*
X26179Y982326D01*
X26568Y982302D01*
X26956Y982269D01*
X27343Y982226D01*
X27729Y982173D01*
X28114Y982111D01*
X28497Y982040D01*
X28878Y981959D01*
X29257Y981869D01*
X29634Y981770D01*
X30008Y981661D01*
X30380Y981544D01*
X30748Y981417D01*
X31113Y981281D01*
X31475Y981137D01*
X31833Y980983D01*
X32187Y980821D01*
X32538Y980650D01*
X32883Y980471D01*
X33225Y980283D01*
X33561Y980086D01*
X33893Y979882D01*
X34220Y979670D01*
X34541Y979449D01*
X34857Y979221D01*
X35167Y978985D01*
X35471Y978742D01*
X35769Y978491D01*
X36061Y978233D01*
X36346Y977967D01*
X36625Y977695D01*
X36897Y977416D01*
X37163Y977131D01*
X37421Y976839D01*
X37672Y976541D01*
X37915Y976237D01*
X38151Y975927D01*
X38379Y975611D01*
X38600Y975290D01*
X38812Y974963D01*
X39016Y974631D01*
X39213Y974295D01*
X39401Y973953D01*
X39580Y973608D01*
X39751Y973257D01*
X39913Y972903D01*
X40067Y972545D01*
X40211Y972183D01*
X40347Y971818D01*
X40474Y971450D01*
X40591Y971078D01*
X40700Y970704D01*
X40799Y970327D01*
X40889Y969948D01*
X40970Y969567D01*
X41041Y969184D01*
X41103Y968799D01*
X41156Y968413D01*
X41199Y968026D01*
X41232Y967638D01*
X41256Y967249D01*
X41270Y966860D01*
X41275Y966470D01*
X41270Y966080D01*
X41256Y965691D01*
X41232Y965302D01*
X41199Y964914D01*
X41156Y964527D01*
X41103Y964141D01*
X41041Y963756D01*
X40970Y963373D01*
X40889Y962992D01*
X40799Y962613D01*
X40700Y962236D01*
X40591Y961862D01*
X40474Y961490D01*
X40347Y961122D01*
X40211Y960757D01*
X40067Y960395D01*
X39913Y960037D01*
X39751Y959683D01*
X39580Y959332D01*
X39401Y958987D01*
X39213Y958645D01*
X39016Y958309D01*
X38812Y957977D01*
X38600Y957650D01*
X38379Y957329D01*
X38151Y957013D01*
X37915Y956703D01*
X37672Y956399D01*
X37421Y956101D01*
X37163Y955809D01*
X36897Y955524D01*
X36625Y955245D01*
X36346Y954973D01*
X36061Y954707D01*
X35769Y954449D01*
X35471Y954198D01*
X35167Y953955D01*
X34857Y953719D01*
X34541Y953491D01*
X34220Y953270D01*
X33893Y953058D01*
X33561Y952854D01*
X33225Y952657D01*
X32883Y952469D01*
X32538Y952290D01*
X32187Y952119D01*
X31833Y951957D01*
X31475Y951803D01*
X31113Y951659D01*
X30748Y951523D01*
X30380Y951396D01*
X30008Y951279D01*
X29634Y951170D01*
X29257Y951071D01*
X28878Y950981D01*
X28497Y950900D01*
X28114Y950829D01*
X27729Y950767D01*
X27343Y950714D01*
X26956Y950671D01*
X26568Y950638D01*
X26179Y950614D01*
X25790Y950600D01*
X25400Y950595D01*
X25010Y950600D01*
X24621Y950614D01*
X24232Y950638D01*
X23844Y950671D01*
X23457Y950714D01*
X23071Y950767D01*
X22686Y950829D01*
X22303Y950900D01*
X21922Y950981D01*
X21543Y951071D01*
X21166Y951170D01*
X20792Y951279D01*
X20420Y951396D01*
X20052Y951523D01*
X19687Y951659D01*
X19325Y951803D01*
X18967Y951957D01*
X18613Y952119D01*
X18262Y952290D01*
X17917Y952469D01*
X17575Y952657D01*
X17239Y952854D01*
X16907Y953058D01*
X16580Y953270D01*
X16259Y953491D01*
X15943Y953719D01*
X15633Y953955D01*
X15329Y954198D01*
X15031Y954449D01*
X14739Y954707D01*
X14454Y954973D01*
X14175Y955245D01*
X13903Y955524D01*
X13637Y955809D01*
X13379Y956101D01*
X13128Y956399D01*
X12885Y956703D01*
X12649Y957013D01*
X12421Y957329D01*
X12200Y957650D01*
X11988Y957977D01*
X11784Y958309D01*
X11587Y958645D01*
X11399Y958987D01*
X11220Y959332D01*
X11049Y959683D01*
X10887Y960037D01*
X10733Y960395D01*
X10589Y960757D01*
X10453Y961122D01*
X10326Y961490D01*
X10209Y961862D01*
X10100Y962236D01*
X10001Y962613D01*
X9911Y962992D01*
X9830Y963373D01*
X9759Y963756D01*
X9697Y964141D01*
X9644Y964527D01*
X9601Y964914D01*
X9568Y965302D01*
X9544Y965691D01*
X9530Y966080D01*
X9525Y966470D01*
X14605Y788670D02*
X14610Y789060D01*
X14624Y789449D01*
X14648Y789838D01*
X14681Y790226D01*
X14724Y790613D01*
X14777Y790999D01*
X14839Y791384D01*
X14910Y791767D01*
X14991Y792148D01*
X15081Y792527D01*
X15180Y792904D01*
X15289Y793278D01*
X15406Y793650D01*
X15533Y794018D01*
X15669Y794383D01*
X15813Y794745D01*
X15967Y795103D01*
X16129Y795457D01*
X16300Y795808D01*
X16479Y796153D01*
X16667Y796495D01*
X16864Y796831D01*
X17068Y797163D01*
X17280Y797490D01*
X17501Y797811D01*
X17729Y798127D01*
X17965Y798437D01*
X18208Y798741D01*
X18459Y799039D01*
X18717Y799331D01*
X18983Y799616D01*
X19255Y799895D01*
X19534Y800167D01*
X19819Y800433D01*
X20111Y800691D01*
X20409Y800942D01*
X20713Y801185D01*
X21023Y801421D01*
X21339Y801649D01*
X21660Y801870D01*
X21987Y802082D01*
X22319Y802286D01*
X22655Y802483D01*
X22997Y802671D01*
X23342Y802850D01*
X23693Y803021D01*
X24047Y803183D01*
X24405Y803337D01*
X24767Y803481D01*
X25132Y803617D01*
X25500Y803744D01*
X25872Y803861D01*
X26246Y803970D01*
X26623Y804069D01*
X27002Y804159D01*
X27383Y804240D01*
X27766Y804311D01*
X28151Y804373D01*
X28537Y804426D01*
X28924Y804469D01*
X29312Y804502D01*
X29701Y804526D01*
X30090Y804540D01*
X30480Y804545D01*
X30870Y804540D01*
X31259Y804526D01*
X31648Y804502D01*
X32036Y804469D01*
X32423Y804426D01*
X32809Y804373D01*
X33194Y804311D01*
X33577Y804240D01*
X33958Y804159D01*
X34337Y804069D01*
X34714Y803970D01*
X35088Y803861D01*
X35460Y803744D01*
X35828Y803617D01*
X36193Y803481D01*
X36555Y803337D01*
X36913Y803183D01*
X37267Y803021D01*
X37618Y802850D01*
X37963Y802671D01*
X38305Y802483D01*
X38641Y802286D01*
X38973Y802082D01*
X39300Y801870D01*
X39621Y801649D01*
X39937Y801421D01*
X40247Y801185D01*
X40551Y800942D01*
X40849Y800691D01*
X41141Y800433D01*
X41426Y800167D01*
X41705Y799895D01*
X41977Y799616D01*
X42243Y799331D01*
X42501Y799039D01*
X42752Y798741D01*
X42995Y798437D01*
X43231Y798127D01*
X43459Y797811D01*
X43680Y797490D01*
X43892Y797163D01*
X44096Y796831D01*
X44293Y796495D01*
X44481Y796153D01*
X44660Y795808D01*
X44831Y795457D01*
X44993Y795103D01*
X45147Y794745D01*
X45291Y794383D01*
X45427Y794018D01*
X45554Y793650D01*
X45671Y793278D01*
X45780Y792904D01*
X45879Y792527D01*
X45969Y792148D01*
X46050Y791767D01*
X46121Y791384D01*
X46183Y790999D01*
X46236Y790613D01*
X46279Y790226D01*
X46312Y789838D01*
X46336Y789449D01*
X46350Y789060D01*
X46355Y788670D01*
X46350Y788280D01*
X46336Y787891D01*
X46312Y787502D01*
X46279Y787114D01*
X46236Y786727D01*
X46183Y786341D01*
X46121Y785956D01*
X46050Y785573D01*
X45969Y785192D01*
X45879Y784813D01*
X45780Y784436D01*
X45671Y784062D01*
X45554Y783690D01*
X45427Y783322D01*
X45291Y782957D01*
X45147Y782595D01*
X44993Y782237D01*
X44831Y781883D01*
X44660Y781532D01*
X44481Y781187D01*
X44293Y780845D01*
X44096Y780509D01*
X43892Y780177D01*
X43680Y779850D01*
X43459Y779529D01*
X43231Y779213D01*
X42995Y778903D01*
X42752Y778599D01*
X42501Y778301D01*
X42243Y778009D01*
X41977Y777724D01*
X41705Y777445D01*
X41426Y777173D01*
X41141Y776907D01*
X40849Y776649D01*
X40551Y776398D01*
X40247Y776155D01*
X39937Y775919D01*
X39621Y775691D01*
X39300Y775470D01*
X38973Y775258D01*
X38641Y775054D01*
X38305Y774857D01*
X37963Y774669D01*
X37618Y774490D01*
X37267Y774319D01*
X36913Y774157D01*
X36555Y774003D01*
X36193Y773859D01*
X35828Y773723D01*
X35460Y773596D01*
X35088Y773479D01*
X34714Y773370D01*
X34337Y773271D01*
X33958Y773181D01*
X33577Y773100D01*
X33194Y773029D01*
X32809Y772967D01*
X32423Y772914D01*
X32036Y772871D01*
X31648Y772838D01*
X31259Y772814D01*
X30870Y772800D01*
X30480Y772795D01*
X30090Y772800D01*
X29701Y772814D01*
X29312Y772838D01*
X28924Y772871D01*
X28537Y772914D01*
X28151Y772967D01*
X27766Y773029D01*
X27383Y773100D01*
X27002Y773181D01*
X26623Y773271D01*
X26246Y773370D01*
X25872Y773479D01*
X25500Y773596D01*
X25132Y773723D01*
X24767Y773859D01*
X24405Y774003D01*
X24047Y774157D01*
X23693Y774319D01*
X23342Y774490D01*
X22997Y774669D01*
X22655Y774857D01*
X22319Y775054D01*
X21987Y775258D01*
X21660Y775470D01*
X21339Y775691D01*
X21023Y775919D01*
X20713Y776155D01*
X20409Y776398D01*
X20111Y776649D01*
X19819Y776907D01*
X19534Y777173D01*
X19255Y777445D01*
X18983Y777724D01*
X18717Y778009D01*
X18459Y778301D01*
X18208Y778599D01*
X17965Y778903D01*
X17729Y779213D01*
X17501Y779529D01*
X17280Y779850D01*
X17068Y780177D01*
X16864Y780509D01*
X16667Y780845D01*
X16479Y781187D01*
X16300Y781532D01*
X16129Y781883D01*
X15967Y782237D01*
X15813Y782595D01*
X15669Y782957D01*
X15533Y783322D01*
X15406Y783690D01*
X15289Y784062D01*
X15180Y784436D01*
X15081Y784813D01*
X14991Y785192D01*
X14910Y785573D01*
X14839Y785956D01*
X14777Y786341D01*
X14724Y786727D01*
X14681Y787114D01*
X14648Y787502D01*
X14624Y787891D01*
X14610Y788280D01*
X14605Y788670D01*
X962025Y963930D02*
X962030Y964320D01*
X962044Y964709D01*
X962068Y965098D01*
X962101Y965486D01*
X962144Y965873D01*
X962197Y966259D01*
X962259Y966644D01*
X962330Y967027D01*
X962411Y967408D01*
X962501Y967787D01*
X962600Y968164D01*
X962709Y968538D01*
X962826Y968910D01*
X962953Y969278D01*
X963089Y969643D01*
X963233Y970005D01*
X963387Y970363D01*
X963549Y970717D01*
X963720Y971068D01*
X963899Y971413D01*
X964087Y971755D01*
X964284Y972091D01*
X964488Y972423D01*
X964700Y972750D01*
X964921Y973071D01*
X965149Y973387D01*
X965385Y973697D01*
X965628Y974001D01*
X965879Y974299D01*
X966137Y974591D01*
X966403Y974876D01*
X966675Y975155D01*
X966954Y975427D01*
X967239Y975693D01*
X967531Y975951D01*
X967829Y976202D01*
X968133Y976445D01*
X968443Y976681D01*
X968759Y976909D01*
X969080Y977130D01*
X969407Y977342D01*
X969739Y977546D01*
X970075Y977743D01*
X970417Y977931D01*
X970762Y978110D01*
X971113Y978281D01*
X971467Y978443D01*
X971825Y978597D01*
X972187Y978741D01*
X972552Y978877D01*
X972920Y979004D01*
X973292Y979121D01*
X973666Y979230D01*
X974043Y979329D01*
X974422Y979419D01*
X974803Y979500D01*
X975186Y979571D01*
X975571Y979633D01*
X975957Y979686D01*
X976344Y979729D01*
X976732Y979762D01*
X977121Y979786D01*
X977510Y979800D01*
X977900Y979805D01*
X978290Y979800D01*
X978679Y979786D01*
X979068Y979762D01*
X979456Y979729D01*
X979843Y979686D01*
X980229Y979633D01*
X980614Y979571D01*
X980997Y979500D01*
X981378Y979419D01*
X981757Y979329D01*
X982134Y979230D01*
X982508Y979121D01*
X982880Y979004D01*
X983248Y978877D01*
X983613Y978741D01*
X983975Y978597D01*
X984333Y978443D01*
X984687Y978281D01*
X985038Y978110D01*
X985383Y977931D01*
X985725Y977743D01*
X986061Y977546D01*
X986393Y977342D01*
X986720Y977130D01*
X987041Y976909D01*
X987357Y976681D01*
X987667Y976445D01*
X987971Y976202D01*
X988269Y975951D01*
X988561Y975693D01*
X988846Y975427D01*
X989125Y975155D01*
X989397Y974876D01*
X989663Y974591D01*
X989921Y974299D01*
X990172Y974001D01*
X990415Y973697D01*
X990651Y973387D01*
X990879Y973071D01*
X991100Y972750D01*
X991312Y972423D01*
X991516Y972091D01*
X991713Y971755D01*
X991901Y971413D01*
X992080Y971068D01*
X992251Y970717D01*
X992413Y970363D01*
X992567Y970005D01*
X992711Y969643D01*
X992847Y969278D01*
X992974Y968910D01*
X993091Y968538D01*
X993200Y968164D01*
X993299Y967787D01*
X993389Y967408D01*
X993470Y967027D01*
X993541Y966644D01*
X993603Y966259D01*
X993656Y965873D01*
X993699Y965486D01*
X993732Y965098D01*
X993756Y964709D01*
X993770Y964320D01*
X993775Y963930D01*
X993770Y963540D01*
X993756Y963151D01*
X993732Y962762D01*
X993699Y962374D01*
X993656Y961987D01*
X993603Y961601D01*
X993541Y961216D01*
X993470Y960833D01*
X993389Y960452D01*
X993299Y960073D01*
X993200Y959696D01*
X993091Y959322D01*
X992974Y958950D01*
X992847Y958582D01*
X992711Y958217D01*
X992567Y957855D01*
X992413Y957497D01*
X992251Y957143D01*
X992080Y956792D01*
X991901Y956447D01*
X991713Y956105D01*
X991516Y955769D01*
X991312Y955437D01*
X991100Y955110D01*
X990879Y954789D01*
X990651Y954473D01*
X990415Y954163D01*
X990172Y953859D01*
X989921Y953561D01*
X989663Y953269D01*
X989397Y952984D01*
X989125Y952705D01*
X988846Y952433D01*
X988561Y952167D01*
X988269Y951909D01*
X987971Y951658D01*
X987667Y951415D01*
X987357Y951179D01*
X987041Y950951D01*
X986720Y950730D01*
X986393Y950518D01*
X986061Y950314D01*
X985725Y950117D01*
X985383Y949929D01*
X985038Y949750D01*
X984687Y949579D01*
X984333Y949417D01*
X983975Y949263D01*
X983613Y949119D01*
X983248Y948983D01*
X982880Y948856D01*
X982508Y948739D01*
X982134Y948630D01*
X981757Y948531D01*
X981378Y948441D01*
X980997Y948360D01*
X980614Y948289D01*
X980229Y948227D01*
X979843Y948174D01*
X979456Y948131D01*
X979068Y948098D01*
X978679Y948074D01*
X978290Y948060D01*
X977900Y948055D01*
X977510Y948060D01*
X977121Y948074D01*
X976732Y948098D01*
X976344Y948131D01*
X975957Y948174D01*
X975571Y948227D01*
X975186Y948289D01*
X974803Y948360D01*
X974422Y948441D01*
X974043Y948531D01*
X973666Y948630D01*
X973292Y948739D01*
X972920Y948856D01*
X972552Y948983D01*
X972187Y949119D01*
X971825Y949263D01*
X971467Y949417D01*
X971113Y949579D01*
X970762Y949750D01*
X970417Y949929D01*
X970075Y950117D01*
X969739Y950314D01*
X969407Y950518D01*
X969080Y950730D01*
X968759Y950951D01*
X968443Y951179D01*
X968133Y951415D01*
X967829Y951658D01*
X967531Y951909D01*
X967239Y952167D01*
X966954Y952433D01*
X966675Y952705D01*
X966403Y952984D01*
X966137Y953269D01*
X965879Y953561D01*
X965628Y953859D01*
X965385Y954163D01*
X965149Y954473D01*
X964921Y954789D01*
X964700Y955110D01*
X964488Y955437D01*
X964284Y955769D01*
X964087Y956105D01*
X963899Y956447D01*
X963720Y956792D01*
X963549Y957143D01*
X963387Y957497D01*
X963233Y957855D01*
X963089Y958217D01*
X962953Y958582D01*
X962826Y958950D01*
X962709Y959322D01*
X962600Y959696D01*
X962501Y960073D01*
X962411Y960452D01*
X962330Y960833D01*
X962259Y961216D01*
X962197Y961601D01*
X962144Y961987D01*
X962101Y962374D01*
X962068Y962762D01*
X962044Y963151D01*
X962030Y963540D01*
X962025Y963930D01*
X962025Y787400D02*
X962030Y787790D01*
X962044Y788179D01*
X962068Y788568D01*
X962101Y788956D01*
X962144Y789343D01*
X962197Y789729D01*
X962259Y790114D01*
X962330Y790497D01*
X962411Y790878D01*
X962501Y791257D01*
X962600Y791634D01*
X962709Y792008D01*
X962826Y792380D01*
X962953Y792748D01*
X963089Y793113D01*
X963233Y793475D01*
X963387Y793833D01*
X963549Y794187D01*
X963720Y794538D01*
X963899Y794883D01*
X964087Y795225D01*
X964284Y795561D01*
X964488Y795893D01*
X964700Y796220D01*
X964921Y796541D01*
X965149Y796857D01*
X965385Y797167D01*
X965628Y797471D01*
X965879Y797769D01*
X966137Y798061D01*
X966403Y798346D01*
X966675Y798625D01*
X966954Y798897D01*
X967239Y799163D01*
X967531Y799421D01*
X967829Y799672D01*
X968133Y799915D01*
X968443Y800151D01*
X968759Y800379D01*
X969080Y800600D01*
X969407Y800812D01*
X969739Y801016D01*
X970075Y801213D01*
X970417Y801401D01*
X970762Y801580D01*
X971113Y801751D01*
X971467Y801913D01*
X971825Y802067D01*
X972187Y802211D01*
X972552Y802347D01*
X972920Y802474D01*
X973292Y802591D01*
X973666Y802700D01*
X974043Y802799D01*
X974422Y802889D01*
X974803Y802970D01*
X975186Y803041D01*
X975571Y803103D01*
X975957Y803156D01*
X976344Y803199D01*
X976732Y803232D01*
X977121Y803256D01*
X977510Y803270D01*
X977900Y803275D01*
X978290Y803270D01*
X978679Y803256D01*
X979068Y803232D01*
X979456Y803199D01*
X979843Y803156D01*
X980229Y803103D01*
X980614Y803041D01*
X980997Y802970D01*
X981378Y802889D01*
X981757Y802799D01*
X982134Y802700D01*
X982508Y802591D01*
X982880Y802474D01*
X983248Y802347D01*
X983613Y802211D01*
X983975Y802067D01*
X984333Y801913D01*
X984687Y801751D01*
X985038Y801580D01*
X985383Y801401D01*
X985725Y801213D01*
X986061Y801016D01*
X986393Y800812D01*
X986720Y800600D01*
X987041Y800379D01*
X987357Y800151D01*
X987667Y799915D01*
X987971Y799672D01*
X988269Y799421D01*
X988561Y799163D01*
X988846Y798897D01*
X989125Y798625D01*
X989397Y798346D01*
X989663Y798061D01*
X989921Y797769D01*
X990172Y797471D01*
X990415Y797167D01*
X990651Y796857D01*
X990879Y796541D01*
X991100Y796220D01*
X991312Y795893D01*
X991516Y795561D01*
X991713Y795225D01*
X991901Y794883D01*
X992080Y794538D01*
X992251Y794187D01*
X992413Y793833D01*
X992567Y793475D01*
X992711Y793113D01*
X992847Y792748D01*
X992974Y792380D01*
X993091Y792008D01*
X993200Y791634D01*
X993299Y791257D01*
X993389Y790878D01*
X993470Y790497D01*
X993541Y790114D01*
X993603Y789729D01*
X993656Y789343D01*
X993699Y788956D01*
X993732Y788568D01*
X993756Y788179D01*
X993770Y787790D01*
X993775Y787400D01*
X993770Y787010D01*
X993756Y786621D01*
X993732Y786232D01*
X993699Y785844D01*
X993656Y785457D01*
X993603Y785071D01*
X993541Y784686D01*
X993470Y784303D01*
X993389Y783922D01*
X993299Y783543D01*
X993200Y783166D01*
X993091Y782792D01*
X992974Y782420D01*
X992847Y782052D01*
X992711Y781687D01*
X992567Y781325D01*
X992413Y780967D01*
X992251Y780613D01*
X992080Y780262D01*
X991901Y779917D01*
X991713Y779575D01*
X991516Y779239D01*
X991312Y778907D01*
X991100Y778580D01*
X990879Y778259D01*
X990651Y777943D01*
X990415Y777633D01*
X990172Y777329D01*
X989921Y777031D01*
X989663Y776739D01*
X989397Y776454D01*
X989125Y776175D01*
X988846Y775903D01*
X988561Y775637D01*
X988269Y775379D01*
X987971Y775128D01*
X987667Y774885D01*
X987357Y774649D01*
X987041Y774421D01*
X986720Y774200D01*
X986393Y773988D01*
X986061Y773784D01*
X985725Y773587D01*
X985383Y773399D01*
X985038Y773220D01*
X984687Y773049D01*
X984333Y772887D01*
X983975Y772733D01*
X983613Y772589D01*
X983248Y772453D01*
X982880Y772326D01*
X982508Y772209D01*
X982134Y772100D01*
X981757Y772001D01*
X981378Y771911D01*
X980997Y771830D01*
X980614Y771759D01*
X980229Y771697D01*
X979843Y771644D01*
X979456Y771601D01*
X979068Y771568D01*
X978679Y771544D01*
X978290Y771530D01*
X977900Y771525D01*
X977510Y771530D01*
X977121Y771544D01*
X976732Y771568D01*
X976344Y771601D01*
X975957Y771644D01*
X975571Y771697D01*
X975186Y771759D01*
X974803Y771830D01*
X974422Y771911D01*
X974043Y772001D01*
X973666Y772100D01*
X973292Y772209D01*
X972920Y772326D01*
X972552Y772453D01*
X972187Y772589D01*
X971825Y772733D01*
X971467Y772887D01*
X971113Y773049D01*
X970762Y773220D01*
X970417Y773399D01*
X970075Y773587D01*
X969739Y773784D01*
X969407Y773988D01*
X969080Y774200D01*
X968759Y774421D01*
X968443Y774649D01*
X968133Y774885D01*
X967829Y775128D01*
X967531Y775379D01*
X967239Y775637D01*
X966954Y775903D01*
X966675Y776175D01*
X966403Y776454D01*
X966137Y776739D01*
X965879Y777031D01*
X965628Y777329D01*
X965385Y777633D01*
X965149Y777943D01*
X964921Y778259D01*
X964700Y778580D01*
X964488Y778907D01*
X964284Y779239D01*
X964087Y779575D01*
X963899Y779917D01*
X963720Y780262D01*
X963549Y780613D01*
X963387Y780967D01*
X963233Y781325D01*
X963089Y781687D01*
X962953Y782052D01*
X962826Y782420D01*
X962709Y782792D01*
X962600Y783166D01*
X962501Y783543D01*
X962411Y783922D01*
X962330Y784303D01*
X962259Y784686D01*
X962197Y785071D01*
X962144Y785457D01*
X962101Y785844D01*
X962068Y786232D01*
X962044Y786621D01*
X962030Y787010D01*
X962025Y787400D01*
X1012700Y0D02*
X12700Y0D01*
D11*
X450596Y660400D02*
X463804Y660400D01*
X463804Y635000D02*
X450596Y635000D01*
X450596Y609600D02*
X463804Y609600D01*
X463804Y584200D02*
X450596Y584200D01*
X450596Y558800D02*
X463804Y558800D01*
X463804Y533400D02*
X450596Y533400D01*
X450596Y508000D02*
X463804Y508000D01*
X463804Y482600D02*
X450596Y482600D01*
X450596Y457200D02*
X463804Y457200D01*
X463804Y431800D02*
X450596Y431800D01*
X450596Y406400D02*
X463804Y406400D01*
X463804Y381000D02*
X450596Y381000D01*
X450596Y355600D02*
X463804Y355600D01*
X463804Y330200D02*
X450596Y330200D01*
X526796Y330200D02*
X540004Y330200D01*
X540004Y355600D02*
X526796Y355600D01*
X526796Y381000D02*
X540004Y381000D01*
X540004Y406400D02*
X526796Y406400D01*
X526796Y431800D02*
X540004Y431800D01*
X540004Y457200D02*
X526796Y457200D01*
X526796Y482600D02*
X540004Y482600D01*
X540004Y508000D02*
X526796Y508000D01*
X526796Y533400D02*
X540004Y533400D01*
X540004Y558800D02*
X526796Y558800D01*
X526796Y584200D02*
X540004Y584200D01*
X540004Y609600D02*
X526796Y609600D01*
X526796Y635000D02*
X540004Y635000D01*
X540004Y660400D02*
X526796Y660400D01*
D12*
X48590Y654350D03*
X48590Y647850D03*
X48590Y641350D03*
X48590Y634850D03*
X48590Y628350D03*
D13*
X48590Y666350D03*
X48590Y616350D03*
D14*
X21590Y676350D03*
X21590Y606350D03*
D15*
X25400Y330200D03*
X25400Y355600D03*
D16*
X25400Y520300D03*
X25400Y495300D03*
X25400Y470300D03*
D15*
X76200Y546100D03*
X101600Y546100D03*
X127000Y546100D03*
X152400Y546100D03*
D17*
X88900Y647700D03*
X88900Y673100D03*
X127000Y571500D03*
X127000Y673100D03*
D15*
X317500Y660400D03*
X317500Y635000D03*
X317500Y609600D03*
X317500Y584200D03*
X317500Y558800D03*
D18*
X279000Y647700D03*
X229000Y647700D03*
D19*
X203200Y723900D03*
X203200Y622300D03*
X584200Y660400D03*
X584200Y635000D03*
X419100Y355600D03*
X419100Y330200D03*
D20*
X609600Y469900D03*
D21*
X609600Y368300D03*
D15*
X44450Y240030D03*
X44450Y214630D03*
X44450Y189230D03*
X44450Y163830D03*
X44450Y138430D03*
X44450Y113030D03*
X127000Y254000D03*
X127000Y228600D03*
X127000Y203200D03*
X127000Y177800D03*
X127000Y152400D03*
X127000Y127000D03*
X127000Y101600D03*
D11*
X806196Y635000D02*
X819404Y635000D01*
X819404Y609600D02*
X806196Y609600D01*
X806196Y584200D02*
X819404Y584200D01*
X819404Y558800D02*
X806196Y558800D01*
X806196Y533400D02*
X819404Y533400D01*
X819404Y508000D02*
X806196Y508000D01*
X806196Y482600D02*
X819404Y482600D01*
X819404Y457200D02*
X806196Y457200D01*
X806196Y431800D02*
X819404Y431800D01*
X819404Y406400D02*
X806196Y406400D01*
X806196Y381000D02*
X819404Y381000D01*
X819404Y355600D02*
X806196Y355600D01*
X806196Y330200D02*
X819404Y330200D01*
X819404Y304800D02*
X806196Y304800D01*
X882396Y304800D02*
X895604Y304800D01*
X895604Y330200D02*
X882396Y330200D01*
X882396Y355600D02*
X895604Y355600D01*
X895604Y381000D02*
X882396Y381000D01*
X882396Y406400D02*
X895604Y406400D01*
X895604Y431800D02*
X882396Y431800D01*
X882396Y457200D02*
X895604Y457200D01*
X895604Y482600D02*
X882396Y482600D01*
X882396Y508000D02*
X895604Y508000D01*
X895604Y533400D02*
X882396Y533400D01*
X882396Y558800D02*
X895604Y558800D01*
X895604Y584200D02*
X882396Y584200D01*
X882396Y609600D02*
X895604Y609600D01*
X895604Y635000D02*
X882396Y635000D01*
D19*
X774700Y431800D03*
X774700Y406400D03*
D17*
X741680Y266700D03*
X741680Y368300D03*
X711200Y267970D03*
X711200Y369570D03*
D19*
X939800Y330200D03*
X939800Y304800D03*
D22*
X838200Y266700D03*
X939800Y266700D03*
D18*
X698900Y800100D03*
X748900Y800100D03*
D23*
X698500Y889000D03*
X596900Y889000D03*
D18*
X482600Y914400D03*
X482600Y889000D03*
X482600Y863600D03*
X482600Y838200D03*
X482600Y812800D03*
X482600Y787400D03*
X482600Y762000D03*
X558800Y762000D03*
X558800Y787400D03*
X558800Y812800D03*
X558800Y838200D03*
X558800Y863600D03*
X558800Y889000D03*
X558800Y914400D03*
D15*
X393700Y914400D03*
X393700Y939800D03*
X431800Y787400D03*
X431800Y812800D03*
D24*
X279400Y63500D03*
X254000Y63500D03*
X279400Y88900D03*
X254000Y88900D03*
X279400Y114300D03*
X254000Y114300D03*
X279400Y139700D03*
X254000Y139700D03*
X279400Y165100D03*
X254000Y165100D03*
X279400Y190500D03*
X254000Y190500D03*
X279400Y215900D03*
X254000Y215900D03*
X279400Y241300D03*
X254000Y241300D03*
X279400Y266700D03*
X254000Y266700D03*
X279400Y292100D03*
X254000Y292100D03*
X279400Y317500D03*
X254000Y317500D03*
D25*
X297180Y31750D03*
X266700Y31750D03*
X228600Y31750D03*
X198120Y31750D03*
D17*
X584200Y241300D03*
X584200Y342900D03*
X622300Y241300D03*
X622300Y342900D03*
D15*
X228600Y114300D03*
X228600Y241300D03*
X304800Y266700D03*
X774700Y609600D03*
X774700Y584200D03*
X774700Y558800D03*
X774700Y533400D03*
X774700Y508000D03*
X774700Y482600D03*
X774700Y457200D03*
X889000Y736600D03*
X850900Y736600D03*
X812800Y736600D03*
X660400Y203200D03*
X660400Y177800D03*
X660400Y152400D03*
X660400Y127000D03*
X660400Y101600D03*
X660400Y76200D03*
X660400Y50800D03*
X660400Y25400D03*
X635000Y203200D03*
X635000Y177800D03*
X635000Y152400D03*
X635000Y127000D03*
X635000Y101600D03*
X635000Y76200D03*
X635000Y50800D03*
X635000Y25400D03*
X609600Y203200D03*
X609600Y177800D03*
X609600Y152400D03*
X609600Y127000D03*
X609600Y101600D03*
X609600Y76200D03*
X609600Y50800D03*
X609600Y25400D03*
X584200Y203200D03*
X584200Y177800D03*
X584200Y152400D03*
X584200Y127000D03*
X584200Y101600D03*
X584200Y76200D03*
X584200Y50800D03*
X584200Y25400D03*
X558800Y203200D03*
X558800Y177800D03*
X558800Y152400D03*
X558800Y127000D03*
X558800Y101600D03*
X558800Y76200D03*
X558800Y50800D03*
X558800Y25400D03*
X901700Y25400D03*
X901700Y50800D03*
X901700Y76200D03*
X901700Y101600D03*
X901700Y127000D03*
X901700Y152400D03*
X901700Y177800D03*
X901700Y203200D03*
X508000Y38100D03*
X508000Y63500D03*
X508000Y88900D03*
X508000Y114300D03*
X508000Y139700D03*
X508000Y165100D03*
X508000Y190500D03*
X508000Y215900D03*
X863600Y25400D03*
X863600Y50800D03*
X863600Y76200D03*
X863600Y101600D03*
X863600Y127000D03*
X863600Y152400D03*
X863600Y177800D03*
X863600Y203200D03*
X482600Y38100D03*
X482600Y63500D03*
X482600Y88900D03*
X482600Y114300D03*
X482600Y139700D03*
X482600Y165100D03*
X482600Y190500D03*
X482600Y215900D03*
X698500Y25400D03*
X698500Y50800D03*
X698500Y76200D03*
X698500Y101600D03*
X698500Y127000D03*
X698500Y152400D03*
X698500Y177800D03*
X698500Y203200D03*
X723900Y25400D03*
X723900Y50800D03*
X723900Y76200D03*
X723900Y101600D03*
X723900Y127000D03*
X723900Y152400D03*
X723900Y177800D03*
X723900Y203200D03*
X749300Y25400D03*
X749300Y50800D03*
X749300Y76200D03*
X749300Y101600D03*
X749300Y127000D03*
X749300Y152400D03*
X749300Y177800D03*
X749300Y203200D03*
X774700Y25400D03*
X774700Y50800D03*
X774700Y76200D03*
X774700Y101600D03*
X774700Y127000D03*
X774700Y152400D03*
X774700Y177800D03*
X774700Y203200D03*
X800100Y25400D03*
X800100Y50800D03*
X800100Y76200D03*
X800100Y101600D03*
X800100Y127000D03*
X800100Y152400D03*
X800100Y177800D03*
X800100Y203200D03*
X101600Y127000D03*
X584200Y609600D03*
D26*
X87630Y582530D02*
X25400Y520300D01*
X87630Y582530D02*
X87630Y623570D01*
X56850Y654350D02*
X48590Y654350D01*
X56850Y654350D02*
X87630Y623570D01*
X62530Y628350D02*
X48590Y628350D01*
X62530Y628350D02*
X68580Y622300D01*
D27*
X68580Y622300D03*
D26*
X25400Y470300D02*
X25400Y355600D01*
X25400Y495300D02*
X50800Y520700D01*
X127000Y520700D02*
X127000Y546100D01*
X152400Y571500D01*
X152400Y698500D01*
X215900Y762000D01*
X301808Y762000D01*
X428808Y889000D02*
X482600Y889000D01*
X428808Y889000D02*
X301808Y762000D01*
X25400Y304800D02*
X25400Y25400D01*
X38100Y12700D01*
X457200Y12700D01*
X482600Y38100D01*
X50800Y330200D02*
X25400Y304800D01*
X50800Y330200D02*
X50800Y469900D01*
X25400Y495300D01*
D27*
X127000Y520700D03*
X50800Y520700D03*
D26*
X203200Y622300D02*
X215900Y635000D01*
X317500Y635000D01*
X516272Y660400D02*
X533400Y660400D01*
X584200Y660400D01*
X533400Y660400D02*
X533400Y736600D01*
X558800Y762000D01*
X533400Y787400D01*
X533400Y876300D01*
X546100Y889000D01*
X558800Y889000D01*
X596900Y889000D01*
X584200Y660400D02*
X761746Y482854D01*
X774700Y438880D02*
X774700Y431800D01*
X761746Y451834D02*
X761746Y482854D01*
X761746Y451834D02*
X774700Y438880D01*
X774700Y431800D02*
X812800Y431800D01*
X838200Y431800D01*
X889000Y381000D01*
X838200Y330200D01*
X876300Y228600D02*
X901700Y203200D01*
X876300Y228600D02*
X779780Y228600D01*
X741680Y266700D01*
X901700Y203200D02*
X901700Y177800D01*
X901700Y152400D01*
X901700Y127000D01*
X901700Y101600D01*
X901700Y76200D01*
X901700Y50800D01*
X901700Y25400D01*
X622300Y241300D02*
X584200Y241300D01*
X495300Y241300D02*
X495300Y355600D01*
X436228Y635000D02*
X446388Y645160D01*
X436228Y635000D02*
X317500Y635000D01*
X501032Y645160D02*
X516272Y660400D01*
X501032Y645160D02*
X446388Y645160D01*
X107950Y577850D02*
X76200Y546100D01*
X107950Y628650D02*
X88900Y647700D01*
X107950Y628650D02*
X107950Y577850D01*
X648970Y267970D02*
X711200Y267970D01*
X648970Y267970D02*
X622300Y241300D01*
X304800Y241300D02*
X304800Y63500D01*
D27*
X304800Y63500D03*
X304800Y241300D03*
X495300Y241300D03*
X495300Y355600D03*
X381000Y241300D03*
D26*
X381000Y355600D01*
D27*
X381000Y355600D03*
D26*
X127000Y228600D02*
X125730Y228600D01*
X110490Y243840D01*
X110490Y530860D01*
D27*
X110490Y530860D03*
D26*
X838200Y330200D02*
X838200Y292100D01*
X812800Y266700D01*
X741680Y266700D01*
X712470Y266700D01*
X711200Y267970D01*
X457200Y355600D02*
X419100Y355600D01*
X127000Y673100D02*
X88900Y673100D01*
X317500Y660400D02*
X457200Y660400D01*
X317500Y660400D02*
X291700Y660400D01*
X279000Y647700D01*
X203200Y723500D01*
X203200Y723900D01*
X533400Y457200D02*
X546100Y469900D01*
X609600Y469900D01*
D27*
X335562Y596900D03*
D26*
X335562Y506730D01*
X334010Y506730D01*
D27*
X334010Y506730D03*
X63500Y495300D03*
D26*
X63500Y208280D01*
X44450Y189230D01*
X533400Y609600D02*
X584200Y609600D01*
X127000Y152400D02*
X101600Y127000D01*
X88900Y152400D02*
X127000Y152400D01*
D27*
X88900Y152400D03*
X508000Y609600D03*
D26*
X533400Y609600D01*
X533400Y558800D02*
X508000Y533400D01*
X508000Y495300D01*
D27*
X508000Y495300D03*
X406400Y495300D03*
D26*
X406400Y444500D01*
D27*
X406400Y444500D03*
X101600Y444500D03*
D26*
X101600Y228600D01*
D27*
X101600Y228600D03*
X381000Y571500D03*
D26*
X368300Y558800D01*
X368300Y482600D01*
D27*
X368300Y482600D03*
X101600Y469900D03*
D26*
X88900Y457200D01*
X88900Y203200D01*
D27*
X88900Y203200D03*
X165100Y127000D03*
D26*
X165100Y457200D01*
D27*
X165100Y457200D03*
X508000Y469900D03*
D26*
X516636Y478536D02*
X516636Y516636D01*
X516636Y478536D02*
X508000Y469900D01*
X516636Y516636D02*
X533400Y533400D01*
X741680Y368300D02*
X800100Y368300D01*
X812800Y355600D01*
X546100Y393700D02*
X533400Y381000D01*
X546100Y393700D02*
X622300Y393700D01*
D27*
X622300Y393700D03*
D26*
X750570Y330200D02*
X812800Y330200D01*
X750570Y330200D02*
X711200Y369570D01*
X674370Y406400D01*
X533400Y406400D01*
X946638Y412262D02*
X939800Y330200D01*
X946638Y412262D02*
X901700Y457200D01*
X889000Y457200D01*
X939800Y304800D02*
X939800Y266700D01*
X698500Y800500D02*
X698500Y889000D01*
X698500Y800500D02*
X698900Y800100D01*
X889000Y558800D02*
X927100Y558800D01*
X939800Y571500D01*
X939800Y698500D02*
X927100Y711200D01*
X939800Y698500D02*
X939800Y571500D01*
X762000Y711200D02*
X609600Y863600D01*
X558800Y863600D01*
X762000Y711200D02*
X927100Y711200D01*
X889000Y533400D02*
X863600Y533400D01*
X863600Y635000D01*
X812800Y685800D01*
X596900Y838200D02*
X558800Y838200D01*
X749300Y685800D02*
X812800Y685800D01*
X749300Y685800D02*
X596900Y838200D01*
X850900Y508000D02*
X889000Y508000D01*
X850900Y508000D02*
X850900Y635000D01*
X812800Y673100D01*
X736600Y673100D02*
X596900Y812800D01*
X558800Y812800D01*
X736600Y673100D02*
X812800Y673100D01*
X838200Y482600D02*
X889000Y482600D01*
X838200Y482600D02*
X837184Y483616D01*
X837184Y631588D02*
X808372Y660400D01*
X837184Y631588D02*
X837184Y483616D01*
X584200Y787400D02*
X558800Y787400D01*
X584200Y787400D02*
X711200Y660400D01*
X808372Y660400D01*
X622300Y342900D02*
X609600Y342900D01*
X596900Y355600D01*
X533400Y355600D01*
D27*
X215900Y88900D03*
D26*
X215900Y50800D01*
D27*
X215900Y50800D03*
X533400Y18006D03*
X533400Y304800D03*
X508000Y355600D03*
D26*
X533400Y355600D01*
X533400Y304800D02*
X533400Y18006D01*
X533400Y330200D02*
X546100Y342900D01*
X584200Y342900D01*
X533400Y330200D02*
X520700Y317500D01*
X520700Y232410D01*
X457200Y232410D01*
X457200Y88900D01*
D27*
X457200Y88900D03*
D26*
X431800Y609600D02*
X457200Y635000D01*
X431800Y609600D02*
X342900Y609600D01*
X342900Y495300D01*
D27*
X190500Y215900D03*
D26*
X190500Y495300D01*
X203200Y495300D01*
D27*
X203200Y495300D03*
X342900Y495300D03*
X177800Y190500D03*
D26*
X177800Y419100D01*
D27*
X177800Y419100D03*
X419100Y419100D03*
D26*
X457200Y457200D01*
D27*
X381000Y533400D03*
D26*
X381000Y469900D01*
D27*
X381000Y469900D03*
X215900Y469900D03*
D26*
X215900Y266700D01*
X203200Y254000D01*
X203200Y139700D01*
D27*
X203200Y139700D03*
D26*
X444500Y596900D02*
X457200Y609600D01*
X444500Y596900D02*
X393700Y596900D01*
X355600Y558800D01*
D27*
X355600Y215900D03*
D26*
X355600Y558800D01*
X457200Y431800D02*
X431800Y406400D01*
D27*
X431800Y406400D03*
X368300Y406400D03*
D26*
X368300Y190500D01*
D27*
X368300Y190500D03*
X393700Y139700D03*
X393700Y508000D03*
D26*
X393700Y139700D01*
X171450Y509270D02*
X171450Y584200D01*
X177800Y584200D01*
X76200Y508000D02*
X76200Y76200D01*
X152400Y76200D01*
X152400Y165100D01*
D27*
X177800Y584200D03*
X171450Y509270D03*
X76200Y508000D03*
X152400Y165100D03*
X317500Y165100D03*
D26*
X317500Y241300D01*
X330200Y254000D01*
X330200Y279400D01*
X317500Y292100D01*
X317500Y558800D01*
X254000Y266700D02*
X228600Y266700D01*
X228600Y381000D01*
D27*
X228600Y381000D03*
X457200Y292100D03*
D26*
X457200Y330200D01*
X279400Y317500D02*
X279400Y368300D01*
D27*
X279400Y368300D03*
X495300Y368300D03*
D26*
X495300Y508000D01*
D27*
X495300Y508000D03*
X431800Y114300D03*
D26*
X431800Y241300D01*
D27*
X431800Y241300D03*
X476250Y241300D03*
D26*
X476250Y387350D01*
X457200Y406400D01*
X254000Y431800D02*
X254000Y317500D01*
D27*
X254000Y431800D03*
X508000Y444500D03*
D26*
X516636Y453136D02*
X516636Y465836D01*
X516636Y453136D02*
X508000Y444500D01*
X516636Y465836D02*
X533400Y482600D01*
X304800Y266700D02*
X279400Y266700D01*
X254000Y241300D02*
X228600Y241300D01*
X228600Y114300D02*
X254000Y114300D01*
X774700Y609600D02*
X812800Y609600D01*
X812800Y584200D02*
X774700Y584200D01*
X774700Y558800D02*
X812800Y558800D01*
X812800Y533400D02*
X774700Y533400D01*
X774700Y508000D02*
X812800Y508000D01*
X812800Y482600D02*
X774700Y482600D01*
X774700Y457200D02*
X812800Y457200D01*
M02*
