G04 EAGLE Gerber RS-274X export*
G75*
%MOMM*%
%FSLAX34Y34*%
%LPD*%
%INTop Soldermask*%
%IPPOS*%
%AMOC8*
5,1,8,0,0,1.08239X$1,22.5*%
G01*
%ADD10C,3.378200*%
%ADD11C,1.524000*%
%ADD12R,1.553200X0.603200*%
%ADD13C,1.561200*%
%ADD14C,2.453200*%
%ADD15C,2.082800*%
%ADD16C,1.611200*%
%ADD17P,1.649562X8X112.500000*%
%ADD18C,1.711200*%
%ADD19P,1.649562X8X292.500000*%
%ADD20C,1.625600*%
%ADD21P,1.759533X8X292.500000*%
%ADD22P,1.649562X8X22.500000*%
%ADD23P,1.649562X8X202.500000*%
%ADD24P,2.254402X8X112.500000*%
%ADD25R,2.743200X1.473200*%
%ADD26C,0.959600*%


D10*
X25400Y966470D03*
X30480Y788670D03*
X977900Y963930D03*
X977900Y787400D03*
D11*
X463804Y660400D02*
X450596Y660400D01*
X450596Y635000D02*
X463804Y635000D01*
X463804Y609600D02*
X450596Y609600D01*
X450596Y584200D02*
X463804Y584200D01*
X463804Y558800D02*
X450596Y558800D01*
X450596Y533400D02*
X463804Y533400D01*
X463804Y508000D02*
X450596Y508000D01*
X450596Y482600D02*
X463804Y482600D01*
X463804Y457200D02*
X450596Y457200D01*
X450596Y431800D02*
X463804Y431800D01*
X463804Y406400D02*
X450596Y406400D01*
X450596Y381000D02*
X463804Y381000D01*
X463804Y355600D02*
X450596Y355600D01*
X450596Y330200D02*
X463804Y330200D01*
X526796Y330200D02*
X540004Y330200D01*
X540004Y355600D02*
X526796Y355600D01*
X526796Y381000D02*
X540004Y381000D01*
X540004Y406400D02*
X526796Y406400D01*
X526796Y431800D02*
X540004Y431800D01*
X540004Y457200D02*
X526796Y457200D01*
X526796Y482600D02*
X540004Y482600D01*
X540004Y508000D02*
X526796Y508000D01*
X526796Y533400D02*
X540004Y533400D01*
X540004Y558800D02*
X526796Y558800D01*
X526796Y584200D02*
X540004Y584200D01*
X540004Y609600D02*
X526796Y609600D01*
X526796Y635000D02*
X540004Y635000D01*
X540004Y660400D02*
X526796Y660400D01*
D12*
X48590Y654350D03*
X48590Y647850D03*
X48590Y641350D03*
X48590Y634850D03*
X48590Y628350D03*
D13*
X48590Y666350D03*
X48590Y616350D03*
D14*
X21590Y676350D03*
X21590Y606350D03*
D15*
X25400Y330200D03*
X25400Y355600D03*
D16*
X25400Y520300D03*
X25400Y495300D03*
X25400Y470300D03*
D15*
X76200Y546100D03*
X101600Y546100D03*
X127000Y546100D03*
X152400Y546100D03*
D17*
X88900Y647700D03*
X88900Y673100D03*
X127000Y571500D03*
X127000Y673100D03*
D15*
X317500Y660400D03*
X317500Y635000D03*
X317500Y609600D03*
X317500Y584200D03*
X317500Y558800D03*
D18*
X279000Y647700D03*
X229000Y647700D03*
D19*
X203200Y723900D03*
X203200Y622300D03*
X584200Y660400D03*
X584200Y635000D03*
X419100Y355600D03*
X419100Y330200D03*
D20*
X609600Y469900D03*
D21*
X609600Y368300D03*
D15*
X44450Y240030D03*
X44450Y214630D03*
X44450Y189230D03*
X44450Y163830D03*
X44450Y138430D03*
X44450Y113030D03*
X127000Y254000D03*
X127000Y228600D03*
X127000Y203200D03*
X127000Y177800D03*
X127000Y152400D03*
X127000Y127000D03*
X127000Y101600D03*
D11*
X806196Y635000D02*
X819404Y635000D01*
X819404Y609600D02*
X806196Y609600D01*
X806196Y584200D02*
X819404Y584200D01*
X819404Y558800D02*
X806196Y558800D01*
X806196Y533400D02*
X819404Y533400D01*
X819404Y508000D02*
X806196Y508000D01*
X806196Y482600D02*
X819404Y482600D01*
X819404Y457200D02*
X806196Y457200D01*
X806196Y431800D02*
X819404Y431800D01*
X819404Y406400D02*
X806196Y406400D01*
X806196Y381000D02*
X819404Y381000D01*
X819404Y355600D02*
X806196Y355600D01*
X806196Y330200D02*
X819404Y330200D01*
X819404Y304800D02*
X806196Y304800D01*
X882396Y304800D02*
X895604Y304800D01*
X895604Y330200D02*
X882396Y330200D01*
X882396Y355600D02*
X895604Y355600D01*
X895604Y381000D02*
X882396Y381000D01*
X882396Y406400D02*
X895604Y406400D01*
X895604Y431800D02*
X882396Y431800D01*
X882396Y457200D02*
X895604Y457200D01*
X895604Y482600D02*
X882396Y482600D01*
X882396Y508000D02*
X895604Y508000D01*
X895604Y533400D02*
X882396Y533400D01*
X882396Y558800D02*
X895604Y558800D01*
X895604Y584200D02*
X882396Y584200D01*
X882396Y609600D02*
X895604Y609600D01*
X895604Y635000D02*
X882396Y635000D01*
D19*
X774700Y431800D03*
X774700Y406400D03*
D17*
X741680Y266700D03*
X741680Y368300D03*
X711200Y267970D03*
X711200Y369570D03*
D19*
X939800Y330200D03*
X939800Y304800D03*
D22*
X838200Y266700D03*
X939800Y266700D03*
D18*
X698900Y800100D03*
X748900Y800100D03*
D23*
X698500Y889000D03*
X596900Y889000D03*
D18*
X482600Y914400D03*
X482600Y889000D03*
X482600Y863600D03*
X482600Y838200D03*
X482600Y812800D03*
X482600Y787400D03*
X482600Y762000D03*
X558800Y762000D03*
X558800Y787400D03*
X558800Y812800D03*
X558800Y838200D03*
X558800Y863600D03*
X558800Y889000D03*
X558800Y914400D03*
D15*
X393700Y914400D03*
X393700Y939800D03*
X431800Y787400D03*
X431800Y812800D03*
D24*
X279400Y63500D03*
X254000Y63500D03*
X279400Y88900D03*
X254000Y88900D03*
X279400Y114300D03*
X254000Y114300D03*
X279400Y139700D03*
X254000Y139700D03*
X279400Y165100D03*
X254000Y165100D03*
X279400Y190500D03*
X254000Y190500D03*
X279400Y215900D03*
X254000Y215900D03*
X279400Y241300D03*
X254000Y241300D03*
X279400Y266700D03*
X254000Y266700D03*
X279400Y292100D03*
X254000Y292100D03*
X279400Y317500D03*
X254000Y317500D03*
D25*
X297180Y31750D03*
X266700Y31750D03*
X228600Y31750D03*
X198120Y31750D03*
D17*
X584200Y241300D03*
X584200Y342900D03*
X622300Y241300D03*
X622300Y342900D03*
D15*
X228600Y114300D03*
X228600Y241300D03*
X304800Y266700D03*
X774700Y609600D03*
X774700Y584200D03*
X774700Y558800D03*
X774700Y533400D03*
X774700Y508000D03*
X774700Y482600D03*
X774700Y457200D03*
X889000Y736600D03*
X850900Y736600D03*
X812800Y736600D03*
X660400Y203200D03*
X660400Y177800D03*
X660400Y152400D03*
X660400Y127000D03*
X660400Y101600D03*
X660400Y76200D03*
X660400Y50800D03*
X660400Y25400D03*
X635000Y203200D03*
X635000Y177800D03*
X635000Y152400D03*
X635000Y127000D03*
X635000Y101600D03*
X635000Y76200D03*
X635000Y50800D03*
X635000Y25400D03*
X609600Y203200D03*
X609600Y177800D03*
X609600Y152400D03*
X609600Y127000D03*
X609600Y101600D03*
X609600Y76200D03*
X609600Y50800D03*
X609600Y25400D03*
X584200Y203200D03*
X584200Y177800D03*
X584200Y152400D03*
X584200Y127000D03*
X584200Y101600D03*
X584200Y76200D03*
X584200Y50800D03*
X584200Y25400D03*
X558800Y203200D03*
X558800Y177800D03*
X558800Y152400D03*
X558800Y127000D03*
X558800Y101600D03*
X558800Y76200D03*
X558800Y50800D03*
X558800Y25400D03*
X901700Y25400D03*
X901700Y50800D03*
X901700Y76200D03*
X901700Y101600D03*
X901700Y127000D03*
X901700Y152400D03*
X901700Y177800D03*
X901700Y203200D03*
X508000Y38100D03*
X508000Y63500D03*
X508000Y88900D03*
X508000Y114300D03*
X508000Y139700D03*
X508000Y165100D03*
X508000Y190500D03*
X508000Y215900D03*
X863600Y25400D03*
X863600Y50800D03*
X863600Y76200D03*
X863600Y101600D03*
X863600Y127000D03*
X863600Y152400D03*
X863600Y177800D03*
X863600Y203200D03*
X482600Y38100D03*
X482600Y63500D03*
X482600Y88900D03*
X482600Y114300D03*
X482600Y139700D03*
X482600Y165100D03*
X482600Y190500D03*
X482600Y215900D03*
X698500Y25400D03*
X698500Y50800D03*
X698500Y76200D03*
X698500Y101600D03*
X698500Y127000D03*
X698500Y152400D03*
X698500Y177800D03*
X698500Y203200D03*
X723900Y25400D03*
X723900Y50800D03*
X723900Y76200D03*
X723900Y101600D03*
X723900Y127000D03*
X723900Y152400D03*
X723900Y177800D03*
X723900Y203200D03*
X749300Y25400D03*
X749300Y50800D03*
X749300Y76200D03*
X749300Y101600D03*
X749300Y127000D03*
X749300Y152400D03*
X749300Y177800D03*
X749300Y203200D03*
X774700Y25400D03*
X774700Y50800D03*
X774700Y76200D03*
X774700Y101600D03*
X774700Y127000D03*
X774700Y152400D03*
X774700Y177800D03*
X774700Y203200D03*
X800100Y25400D03*
X800100Y50800D03*
X800100Y76200D03*
X800100Y101600D03*
X800100Y127000D03*
X800100Y152400D03*
X800100Y177800D03*
X800100Y203200D03*
X101600Y127000D03*
X584200Y609600D03*
D26*
X68580Y622300D03*
X127000Y520700D03*
X50800Y520700D03*
X304800Y63500D03*
X304800Y241300D03*
X495300Y241300D03*
X495300Y355600D03*
X381000Y241300D03*
X381000Y355600D03*
X110490Y530860D03*
X335562Y596900D03*
X334010Y506730D03*
X63500Y495300D03*
X88900Y152400D03*
X508000Y609600D03*
X508000Y495300D03*
X406400Y495300D03*
X406400Y444500D03*
X101600Y444500D03*
X101600Y228600D03*
X381000Y571500D03*
X368300Y482600D03*
X101600Y469900D03*
X88900Y203200D03*
X165100Y127000D03*
X165100Y457200D03*
X508000Y469900D03*
X622300Y393700D03*
X215900Y88900D03*
X215900Y50800D03*
X533400Y18006D03*
X533400Y304800D03*
X508000Y355600D03*
X457200Y88900D03*
X190500Y215900D03*
X203200Y495300D03*
X342900Y495300D03*
X177800Y190500D03*
X177800Y419100D03*
X419100Y419100D03*
X381000Y533400D03*
X381000Y469900D03*
X215900Y469900D03*
X203200Y139700D03*
X355600Y215900D03*
X431800Y406400D03*
X368300Y406400D03*
X368300Y190500D03*
X393700Y139700D03*
X393700Y508000D03*
X177800Y584200D03*
X171450Y509270D03*
X76200Y508000D03*
X152400Y165100D03*
X317500Y165100D03*
X228600Y381000D03*
X457200Y292100D03*
X279400Y368300D03*
X495300Y368300D03*
X495300Y508000D03*
X431800Y114300D03*
X431800Y241300D03*
X476250Y241300D03*
X254000Y431800D03*
X508000Y444500D03*
M02*
