M48
;GenerationSoftware,Autodesk,EAGLE,9.6.2*%
;CreationDate,2021-05-04T03:04:07Z*%
FMAT,2
ICI,OFF
METRIC,TZ,000.000
T9C0.350
T8C0.813
T7C0.850
T6C0.900
T5C0.914
T4C1.000
T3C1.016
T2C1.500
T1C3.175
%
G90
M71
T1
X97790Y78740
X2540Y96647
X3048Y78867
X97790Y96393
T2
X2159Y67635
X2159Y60635
T3
X25400Y6350
X27940Y8890
X25400Y8890
X27940Y11430
X25400Y11430
X27940Y13970
X25400Y13970
X27940Y16510
X25400Y16510
X27940Y19050
X25400Y19050
X27940Y21590
X25400Y21590
X27940Y24130
X25400Y24130
X27940Y26670
X25400Y26670
X25400Y29210
X27940Y31750
X25400Y31750
X22860Y11430
X22860Y24130
X30480Y26670
X77470Y60960
X77470Y58420
X77470Y55880
X77470Y53340
X77470Y50800
X77470Y48260
X77470Y45720
X88900Y73660
X85090Y73660
X81280Y73660
X66040Y20320
X66040Y17780
X66040Y15240
X66040Y12700
X66040Y10160
X66040Y7620
X66040Y5080
X66040Y2540
X63500Y20320
X63500Y17780
X27940Y29210
X63500Y15240
X63500Y12700
X63500Y10160
X63500Y7620
X63500Y5080
X63500Y2540
X60960Y20320
X60960Y17780
X60960Y15240
X60960Y12700
X60960Y10160
X60960Y7620
X60960Y5080
X60960Y2540
X58420Y20320
X58420Y17780
X58420Y15240
X58420Y12700
X58420Y10160
X58420Y7620
X58420Y5080
X58420Y2540
X55880Y20320
X55880Y17780
X55880Y15240
X55880Y12700
X55880Y10160
X55880Y7620
X55880Y5080
X55880Y2540
X90170Y2540
X90170Y5080
X90170Y7620
X90170Y10160
X90170Y12700
X90170Y15240
X90170Y17780
X90170Y20320
X50800Y3810
X50800Y6350
X50800Y8890
X50800Y11430
X50800Y13970
X50800Y16510
X50800Y19050
X50800Y21590
X86360Y2540
X86360Y5080
X86360Y7620
X2540Y33020
X2540Y35560
X86360Y10160
X86360Y12700
X86360Y15240
X7620Y54610
X10160Y54610
X12700Y54610
X15240Y54610
X86360Y17780
X86360Y20320
X48260Y3810
X48260Y6350
X31750Y66040
X31750Y63500
X31750Y60960
X31750Y58420
X31750Y55880
X48260Y8890
X48260Y11430
X48260Y16510
X48260Y19050
X48260Y21590
X69850Y2540
X69850Y5080
X69850Y7620
X69850Y10160
X69850Y12700
X4445Y24003
X4445Y21463
X4445Y18923
X4445Y16383
X4445Y13843
X4445Y11303
X12700Y25400
X12700Y22860
X12700Y20320
X12700Y17780
X12700Y15240
X12700Y12700
X12700Y10160
X69850Y15240
X69850Y17780
X69850Y20320
X72390Y2540
X72390Y5080
X72390Y7620
X72390Y10160
X72390Y12700
X72390Y15240
X72390Y17780
X72390Y20320
X74930Y2540
X74930Y5080
X74930Y7620
X74930Y10160
X74930Y12700
X74930Y15240
X74930Y17780
X74930Y20320
X77470Y2540
X77470Y5080
X77470Y7620
X77470Y10160
X77470Y12700
X77470Y15240
X77470Y17780
X77470Y20320
X80010Y2540
X80010Y5080
X80010Y7620
X80010Y10160
X80010Y12700
X80010Y15240
X80010Y17780
X80010Y20320
X48260Y13970
X39370Y91440
X39370Y93980
X43180Y78740
X43180Y81280
X27940Y6350
T4
X48260Y83820
X48260Y86360
X48260Y91440
X48260Y88900
X22900Y64770
X27900Y64770
X74890Y80010
X69890Y80010
X55880Y91440
X55880Y88900
X55880Y86360
X55880Y83820
X55880Y81280
X55880Y78740
X55880Y76200
X48260Y76200
X48260Y78740
X48260Y81280
T5
X60960Y36830
X60960Y46990
T6
X2540Y47030
X2540Y49530
X2540Y52030
T7
X4859Y61635
X4859Y66635
T8
X53340Y45720
X81280Y45720
X81280Y43180
X81280Y40640
X81280Y38100
X81280Y35560
X81280Y33020
X81280Y30480
X88900Y30480
X88900Y33020
X88900Y35560
X88900Y38100
X88900Y43180
X88900Y45720
X88900Y48260
X88900Y50800
X88900Y53340
X88900Y55880
X88900Y58420
X88900Y60960
X88900Y63500
X53340Y55880
X77470Y43180
X77470Y40640
X74168Y26670
X74168Y36830
X71120Y26797
X71120Y36957
X93980Y33020
X62230Y24130
X62230Y34290
X59690Y88900
X83820Y26670
X93980Y26670
X93980Y30480
X69850Y88900
X58420Y24130
X58420Y34290
X45720Y66040
X45720Y63500
X45720Y60960
X45720Y58420
X45720Y55880
X45720Y53340
X45720Y50800
X45720Y48260
X45720Y45720
X45720Y43180
X45720Y40640
X45720Y38100
X45720Y35560
X45720Y33020
X53340Y33020
X53340Y35560
X53340Y38100
X53340Y40640
X53340Y43180
X53340Y48260
X53340Y50800
X53340Y53340
X88900Y40640
X53340Y58420
X53340Y60960
X53340Y63500
X53340Y66040
X8890Y64770
X8890Y67310
X12700Y57150
X12700Y67310
X20320Y72390
X20320Y62230
X58420Y66040
X58420Y63500
X41910Y35560
X41910Y33020
X81280Y63500
X81280Y60960
X81280Y58420
X81280Y55880
X81280Y53340
X81280Y50800
X81280Y48260
T9
X12700Y52070
X5080Y52070
X30480Y6350
X30480Y24130
X49530Y24130
X49530Y35560
X38100Y24130
X38100Y35560
X11049Y53086
X33556Y59690
X33401Y50673
X6350Y49530
X50800Y49530
X40640Y49530
X40640Y44450
X10160Y44450
X10160Y22860
X38100Y57150
X36830Y48260
X10160Y46990
X16510Y12700
X16510Y45720
X50800Y46990
X62230Y39370
X21590Y8890
X21590Y5080
X53340Y1801
X53340Y30480
X50800Y35560
X45720Y8890
X19050Y21590
X20320Y49530
X34290Y49530
X17780Y19050
X17780Y41910
X41910Y41910
X47625Y24130
X43180Y11430
X49530Y36830
X27940Y36830
X22860Y38100
X8890Y20320
X31750Y16510
X15240Y16510
X7620Y50800
X6858Y62230
X17145Y50927
X17780Y58420
X39370Y50800
X39370Y13970
X36830Y19050
X36830Y40640
X35560Y21590
X20320Y13970
X21590Y46990
X45720Y29210
X49530Y50800
X43180Y24130
X38100Y46990
X38100Y53340
X43180Y40640
X50800Y44450
X25400Y43180
M30