%
M48
M72
T01C0.01378
T02C0.03200
T03C0.03346
T04C0.03543
T05C0.03600
T06C0.03937
T07C0.04000
T08C0.05906
T09C0.12500
%
T01
X127923Y81800
X132923Y91800
X152923Y66800
X162923Y76800
X167923Y86800
X172923Y56800
X157923Y51800
X177923Y36800
X177923Y21800
X212923Y26800
X247923Y56800
X262923Y46800
X272923Y36800
X302923Y8889
X237923Y76800
X232923Y86800
X242923Y96800
X262923Y96800
X280423Y96800
X287923Y96800
X272923Y116800
X287923Y141800
X292923Y141800
X287923Y146800
X262923Y161800
X257923Y166800
X252923Y176800
X242923Y186800
X237923Y191800
X227923Y196800
X224423Y201300
X242923Y211800
X247923Y201800
X252923Y196800
X287923Y201800
X292923Y196800
X292923Y186800
X292923Y176800
X337923Y156800
X302923Y121800
X242923Y141800
X237923Y161800
X202923Y146800
X182923Y151800
X162923Y166800
X157923Y181800
X177923Y186800
X172923Y196800
X160423Y202300
X142923Y206800
X136423Y210800
X122923Y201800
X117923Y196800
X112923Y206800
X132923Y186800
X132923Y176800
X192923Y171800
X242923Y226800
X225034Y236800
X162923Y231800
X119923Y246800
X212923Y96800
X217923Y66800
T02
X257923Y131800
X257923Y141800
X272923Y141800
X272923Y131800
X272923Y151800
X272923Y161800
X272923Y171800
X272923Y181800
X272923Y191800
X272923Y201800
X272923Y211800
X272923Y221800
X272923Y231800
X272923Y241800
X272923Y251800
X272923Y261800
X302923Y261800
X302923Y251800
X302923Y241800
X302923Y231800
X302923Y221800
X302923Y211800
X302923Y201800
X302923Y191800
X302923Y181800
X302923Y171800
X302923Y161800
X302923Y151800
X302923Y141800
X302923Y131800
X322923Y136800
X337923Y136800
X372923Y147300
X384923Y146800
X397923Y161800
X397923Y171800
X412923Y171800
X412923Y181800
X412923Y191800
X412923Y201800
X412923Y211800
X412923Y221800
X412923Y231800
X412923Y241800
X412923Y251800
X442923Y251800
X442923Y241800
X442923Y231800
X442923Y221800
X442923Y211800
X442923Y201800
X442923Y191800
X442923Y181800
X442923Y171800
X442923Y161800
X442923Y151800
X442923Y141800
X442923Y131800
X442923Y121800
X462923Y121800
X462923Y131800
X462923Y106800
X422923Y106800
X412923Y121800
X412923Y131800
X412923Y141800
X412923Y151800
X412923Y161800
X372923Y107300
X384923Y106800
X337923Y96800
X322923Y96800
X142923Y226800
X172923Y246800
X142923Y266800
X127923Y266800
X127923Y256800
X172923Y286800
X322923Y261800
X322923Y251800
X327923Y351800
X367923Y351800
T03
X112053Y264143
X112053Y244457
T04
X102923Y206643
X102923Y196800
X102923Y186957
T05
X332923Y186800
X332923Y146800
T06
X202766Y256800
X183081Y256800
X282923Y301800
X282923Y311800
X282923Y321800
X282923Y331800
X282923Y341800
X282923Y351800
X282923Y361800
X312923Y361800
X312923Y351800
X312923Y341800
X312923Y331800
X312923Y321800
X312923Y311800
X312923Y301800
X368081Y316800
X387766Y316800
T07
X110423Y46300
X110423Y56300
X110423Y66300
X110423Y76300
X110423Y86300
X110423Y96300
X142923Y91800
X142923Y101800
X142923Y81800
X142923Y71800
X142923Y61800
X142923Y51800
X142923Y41800
X182923Y46800
X192923Y46800
X192923Y36800
X202923Y36800
X202923Y46800
X202923Y56800
X192923Y56800
X192923Y66800
X202923Y66800
X202923Y76800
X192923Y76800
X192923Y86800
X202923Y86800
X202923Y96800
X192923Y96800
X182923Y96800
X192923Y106800
X202923Y106800
X212923Y106800
X202923Y116800
X192923Y116800
X192923Y126800
X202923Y126800
X282923Y86800
X282923Y76800
X292923Y76800
X292923Y86800
X312923Y81800
X312923Y71800
X322923Y71800
X322923Y81800
X332923Y81800
X332923Y71800
X342923Y71800
X342923Y81800
X352923Y81800
X352923Y71800
X352923Y61800
X342923Y61800
X332923Y61800
X322923Y61800
X312923Y61800
X312923Y51800
X322923Y51800
X332923Y51800
X342923Y51800
X352923Y51800
X352923Y41800
X342923Y41800
X332923Y41800
X322923Y41800
X312923Y41800
X312923Y31800
X322923Y31800
X332923Y31800
X342923Y31800
X352923Y31800
X352923Y21800
X342923Y21800
X332923Y21800
X322923Y21800
X312923Y21800
X312923Y11800
X322923Y11800
X332923Y11800
X342923Y11800
X352923Y11800
X367923Y11800
X377923Y11800
X387923Y11800
X397923Y11800
X407923Y11800
X407923Y21800
X397923Y21800
X387923Y21800
X377923Y21800
X367923Y21800
X367923Y31800
X367923Y41800
X377923Y41800
X377923Y31800
X387923Y31800
X387923Y41800
X397923Y41800
X397923Y31800
X407923Y31800
X407923Y41800
X407923Y51800
X397923Y51800
X387923Y51800
X377923Y51800
X367923Y51800
X367923Y61800
X377923Y61800
X387923Y61800
X397923Y61800
X407923Y61800
X407923Y71800
X397923Y71800
X387923Y71800
X377923Y71800
X367923Y71800
X367923Y81800
X377923Y81800
X387923Y81800
X397923Y81800
X407923Y81800
X432923Y81800
X432923Y71800
X432923Y61800
X432923Y51800
X432923Y41800
X432923Y31800
X432923Y21800
X432923Y11800
X447923Y11800
X447923Y21800
X447923Y31800
X447923Y41800
X447923Y51800
X447923Y61800
X447923Y71800
X447923Y81800
X397923Y181800
X397923Y191800
X397923Y201800
X397923Y211800
X397923Y221800
X397923Y231800
X397923Y241800
X412923Y291800
X427923Y291800
X442923Y291800
X262923Y311800
X262923Y321800
X247923Y361800
X247923Y371800
X217923Y261800
X217923Y251800
X217923Y241800
X217923Y231800
X217923Y221800
X152923Y216800
X142923Y216800
X132923Y216800
X122923Y216800
X102923Y141800
X102923Y131800
X192923Y26800
X202923Y26800
X282923Y26800
X282923Y16800
X292923Y16800
X292923Y26800
X292923Y36800
X282923Y36800
X282923Y46800
X292923Y46800
X292923Y56800
X282923Y56800
X282923Y66800
X292923Y66800
T08
X101423Y240520
X101423Y268080
T09
X104923Y312300
X102923Y382300
X477923Y381300
X477923Y311800
M30
