G75*
%MOIN*%
%OFA0B0*%
%FSLAX25Y25*%
%IPPOS*%
%LPD*%
%AMOC8*
5,1,8,0,0,1.08239X$1,22.5*
%
%ADD10C,0.00000*%
%ADD11C,0.05200*%
%ADD12R,0.05315X0.01575*%
%ADD13C,0.05346*%
%ADD14C,0.08858*%
%ADD15C,0.07400*%
%ADD16C,0.05543*%
%ADD17OC8,0.05200*%
%ADD18C,0.05937*%
%ADD19C,0.05600*%
%ADD20OC8,0.05600*%
%ADD21OC8,0.07400*%
%ADD22R,0.10000X0.05000*%
%ADD23C,0.01600*%
%ADD24C,0.02978*%
D10*
X0092923Y0001800D02*
X0092923Y0395501D01*
X0486624Y0395501D01*
X0486624Y0001800D01*
X0491624Y0001800D02*
X0097923Y0001800D01*
X0098673Y0312300D02*
X0098675Y0312458D01*
X0098681Y0312615D01*
X0098691Y0312773D01*
X0098705Y0312930D01*
X0098723Y0313086D01*
X0098744Y0313243D01*
X0098770Y0313398D01*
X0098800Y0313553D01*
X0098833Y0313707D01*
X0098871Y0313860D01*
X0098912Y0314013D01*
X0098957Y0314164D01*
X0099006Y0314314D01*
X0099059Y0314462D01*
X0099115Y0314610D01*
X0099176Y0314755D01*
X0099239Y0314900D01*
X0099307Y0315042D01*
X0099378Y0315183D01*
X0099452Y0315322D01*
X0099530Y0315459D01*
X0099612Y0315594D01*
X0099696Y0315727D01*
X0099785Y0315858D01*
X0099876Y0315986D01*
X0099971Y0316113D01*
X0100068Y0316236D01*
X0100169Y0316358D01*
X0100273Y0316476D01*
X0100380Y0316592D01*
X0100490Y0316705D01*
X0100602Y0316816D01*
X0100718Y0316923D01*
X0100836Y0317028D01*
X0100956Y0317130D01*
X0101079Y0317228D01*
X0101205Y0317324D01*
X0101333Y0317416D01*
X0101463Y0317505D01*
X0101595Y0317591D01*
X0101730Y0317673D01*
X0101867Y0317752D01*
X0102005Y0317827D01*
X0102145Y0317899D01*
X0102288Y0317967D01*
X0102431Y0318032D01*
X0102577Y0318093D01*
X0102724Y0318150D01*
X0102872Y0318204D01*
X0103022Y0318254D01*
X0103172Y0318300D01*
X0103324Y0318342D01*
X0103477Y0318381D01*
X0103631Y0318415D01*
X0103786Y0318446D01*
X0103941Y0318472D01*
X0104097Y0318495D01*
X0104254Y0318514D01*
X0104411Y0318529D01*
X0104568Y0318540D01*
X0104726Y0318547D01*
X0104884Y0318550D01*
X0105041Y0318549D01*
X0105199Y0318544D01*
X0105356Y0318535D01*
X0105514Y0318522D01*
X0105670Y0318505D01*
X0105827Y0318484D01*
X0105982Y0318460D01*
X0106137Y0318431D01*
X0106292Y0318398D01*
X0106445Y0318362D01*
X0106598Y0318321D01*
X0106749Y0318277D01*
X0106899Y0318229D01*
X0107048Y0318178D01*
X0107196Y0318122D01*
X0107342Y0318063D01*
X0107487Y0318000D01*
X0107630Y0317933D01*
X0107771Y0317863D01*
X0107910Y0317790D01*
X0108048Y0317713D01*
X0108184Y0317632D01*
X0108317Y0317548D01*
X0108448Y0317461D01*
X0108577Y0317370D01*
X0108704Y0317276D01*
X0108829Y0317179D01*
X0108950Y0317079D01*
X0109070Y0316976D01*
X0109186Y0316870D01*
X0109300Y0316761D01*
X0109412Y0316649D01*
X0109520Y0316535D01*
X0109625Y0316417D01*
X0109728Y0316297D01*
X0109827Y0316175D01*
X0109923Y0316050D01*
X0110016Y0315922D01*
X0110106Y0315793D01*
X0110192Y0315661D01*
X0110276Y0315527D01*
X0110355Y0315391D01*
X0110432Y0315253D01*
X0110504Y0315113D01*
X0110573Y0314971D01*
X0110639Y0314828D01*
X0110701Y0314683D01*
X0110759Y0314536D01*
X0110814Y0314388D01*
X0110865Y0314239D01*
X0110912Y0314088D01*
X0110955Y0313937D01*
X0110994Y0313784D01*
X0111030Y0313630D01*
X0111061Y0313476D01*
X0111089Y0313321D01*
X0111113Y0313165D01*
X0111133Y0313008D01*
X0111149Y0312851D01*
X0111161Y0312694D01*
X0111169Y0312537D01*
X0111173Y0312379D01*
X0111173Y0312221D01*
X0111169Y0312063D01*
X0111161Y0311906D01*
X0111149Y0311749D01*
X0111133Y0311592D01*
X0111113Y0311435D01*
X0111089Y0311279D01*
X0111061Y0311124D01*
X0111030Y0310970D01*
X0110994Y0310816D01*
X0110955Y0310663D01*
X0110912Y0310512D01*
X0110865Y0310361D01*
X0110814Y0310212D01*
X0110759Y0310064D01*
X0110701Y0309917D01*
X0110639Y0309772D01*
X0110573Y0309629D01*
X0110504Y0309487D01*
X0110432Y0309347D01*
X0110355Y0309209D01*
X0110276Y0309073D01*
X0110192Y0308939D01*
X0110106Y0308807D01*
X0110016Y0308678D01*
X0109923Y0308550D01*
X0109827Y0308425D01*
X0109728Y0308303D01*
X0109625Y0308183D01*
X0109520Y0308065D01*
X0109412Y0307951D01*
X0109300Y0307839D01*
X0109186Y0307730D01*
X0109070Y0307624D01*
X0108950Y0307521D01*
X0108829Y0307421D01*
X0108704Y0307324D01*
X0108577Y0307230D01*
X0108448Y0307139D01*
X0108317Y0307052D01*
X0108184Y0306968D01*
X0108048Y0306887D01*
X0107910Y0306810D01*
X0107771Y0306737D01*
X0107630Y0306667D01*
X0107487Y0306600D01*
X0107342Y0306537D01*
X0107196Y0306478D01*
X0107048Y0306422D01*
X0106899Y0306371D01*
X0106749Y0306323D01*
X0106598Y0306279D01*
X0106445Y0306238D01*
X0106292Y0306202D01*
X0106137Y0306169D01*
X0105982Y0306140D01*
X0105827Y0306116D01*
X0105670Y0306095D01*
X0105514Y0306078D01*
X0105356Y0306065D01*
X0105199Y0306056D01*
X0105041Y0306051D01*
X0104884Y0306050D01*
X0104726Y0306053D01*
X0104568Y0306060D01*
X0104411Y0306071D01*
X0104254Y0306086D01*
X0104097Y0306105D01*
X0103941Y0306128D01*
X0103786Y0306154D01*
X0103631Y0306185D01*
X0103477Y0306219D01*
X0103324Y0306258D01*
X0103172Y0306300D01*
X0103022Y0306346D01*
X0102872Y0306396D01*
X0102724Y0306450D01*
X0102577Y0306507D01*
X0102431Y0306568D01*
X0102288Y0306633D01*
X0102145Y0306701D01*
X0102005Y0306773D01*
X0101867Y0306848D01*
X0101730Y0306927D01*
X0101595Y0307009D01*
X0101463Y0307095D01*
X0101333Y0307184D01*
X0101205Y0307276D01*
X0101079Y0307372D01*
X0100956Y0307470D01*
X0100836Y0307572D01*
X0100718Y0307677D01*
X0100602Y0307784D01*
X0100490Y0307895D01*
X0100380Y0308008D01*
X0100273Y0308124D01*
X0100169Y0308242D01*
X0100068Y0308364D01*
X0099971Y0308487D01*
X0099876Y0308614D01*
X0099785Y0308742D01*
X0099696Y0308873D01*
X0099612Y0309006D01*
X0099530Y0309141D01*
X0099452Y0309278D01*
X0099378Y0309417D01*
X0099307Y0309558D01*
X0099239Y0309700D01*
X0099176Y0309845D01*
X0099115Y0309990D01*
X0099059Y0310138D01*
X0099006Y0310286D01*
X0098957Y0310436D01*
X0098912Y0310587D01*
X0098871Y0310740D01*
X0098833Y0310893D01*
X0098800Y0311047D01*
X0098770Y0311202D01*
X0098744Y0311357D01*
X0098723Y0311514D01*
X0098705Y0311670D01*
X0098691Y0311827D01*
X0098681Y0311985D01*
X0098675Y0312142D01*
X0098673Y0312300D01*
X0096673Y0382300D02*
X0096675Y0382458D01*
X0096681Y0382615D01*
X0096691Y0382773D01*
X0096705Y0382930D01*
X0096723Y0383086D01*
X0096744Y0383243D01*
X0096770Y0383398D01*
X0096800Y0383553D01*
X0096833Y0383707D01*
X0096871Y0383860D01*
X0096912Y0384013D01*
X0096957Y0384164D01*
X0097006Y0384314D01*
X0097059Y0384462D01*
X0097115Y0384610D01*
X0097176Y0384755D01*
X0097239Y0384900D01*
X0097307Y0385042D01*
X0097378Y0385183D01*
X0097452Y0385322D01*
X0097530Y0385459D01*
X0097612Y0385594D01*
X0097696Y0385727D01*
X0097785Y0385858D01*
X0097876Y0385986D01*
X0097971Y0386113D01*
X0098068Y0386236D01*
X0098169Y0386358D01*
X0098273Y0386476D01*
X0098380Y0386592D01*
X0098490Y0386705D01*
X0098602Y0386816D01*
X0098718Y0386923D01*
X0098836Y0387028D01*
X0098956Y0387130D01*
X0099079Y0387228D01*
X0099205Y0387324D01*
X0099333Y0387416D01*
X0099463Y0387505D01*
X0099595Y0387591D01*
X0099730Y0387673D01*
X0099867Y0387752D01*
X0100005Y0387827D01*
X0100145Y0387899D01*
X0100288Y0387967D01*
X0100431Y0388032D01*
X0100577Y0388093D01*
X0100724Y0388150D01*
X0100872Y0388204D01*
X0101022Y0388254D01*
X0101172Y0388300D01*
X0101324Y0388342D01*
X0101477Y0388381D01*
X0101631Y0388415D01*
X0101786Y0388446D01*
X0101941Y0388472D01*
X0102097Y0388495D01*
X0102254Y0388514D01*
X0102411Y0388529D01*
X0102568Y0388540D01*
X0102726Y0388547D01*
X0102884Y0388550D01*
X0103041Y0388549D01*
X0103199Y0388544D01*
X0103356Y0388535D01*
X0103514Y0388522D01*
X0103670Y0388505D01*
X0103827Y0388484D01*
X0103982Y0388460D01*
X0104137Y0388431D01*
X0104292Y0388398D01*
X0104445Y0388362D01*
X0104598Y0388321D01*
X0104749Y0388277D01*
X0104899Y0388229D01*
X0105048Y0388178D01*
X0105196Y0388122D01*
X0105342Y0388063D01*
X0105487Y0388000D01*
X0105630Y0387933D01*
X0105771Y0387863D01*
X0105910Y0387790D01*
X0106048Y0387713D01*
X0106184Y0387632D01*
X0106317Y0387548D01*
X0106448Y0387461D01*
X0106577Y0387370D01*
X0106704Y0387276D01*
X0106829Y0387179D01*
X0106950Y0387079D01*
X0107070Y0386976D01*
X0107186Y0386870D01*
X0107300Y0386761D01*
X0107412Y0386649D01*
X0107520Y0386535D01*
X0107625Y0386417D01*
X0107728Y0386297D01*
X0107827Y0386175D01*
X0107923Y0386050D01*
X0108016Y0385922D01*
X0108106Y0385793D01*
X0108192Y0385661D01*
X0108276Y0385527D01*
X0108355Y0385391D01*
X0108432Y0385253D01*
X0108504Y0385113D01*
X0108573Y0384971D01*
X0108639Y0384828D01*
X0108701Y0384683D01*
X0108759Y0384536D01*
X0108814Y0384388D01*
X0108865Y0384239D01*
X0108912Y0384088D01*
X0108955Y0383937D01*
X0108994Y0383784D01*
X0109030Y0383630D01*
X0109061Y0383476D01*
X0109089Y0383321D01*
X0109113Y0383165D01*
X0109133Y0383008D01*
X0109149Y0382851D01*
X0109161Y0382694D01*
X0109169Y0382537D01*
X0109173Y0382379D01*
X0109173Y0382221D01*
X0109169Y0382063D01*
X0109161Y0381906D01*
X0109149Y0381749D01*
X0109133Y0381592D01*
X0109113Y0381435D01*
X0109089Y0381279D01*
X0109061Y0381124D01*
X0109030Y0380970D01*
X0108994Y0380816D01*
X0108955Y0380663D01*
X0108912Y0380512D01*
X0108865Y0380361D01*
X0108814Y0380212D01*
X0108759Y0380064D01*
X0108701Y0379917D01*
X0108639Y0379772D01*
X0108573Y0379629D01*
X0108504Y0379487D01*
X0108432Y0379347D01*
X0108355Y0379209D01*
X0108276Y0379073D01*
X0108192Y0378939D01*
X0108106Y0378807D01*
X0108016Y0378678D01*
X0107923Y0378550D01*
X0107827Y0378425D01*
X0107728Y0378303D01*
X0107625Y0378183D01*
X0107520Y0378065D01*
X0107412Y0377951D01*
X0107300Y0377839D01*
X0107186Y0377730D01*
X0107070Y0377624D01*
X0106950Y0377521D01*
X0106829Y0377421D01*
X0106704Y0377324D01*
X0106577Y0377230D01*
X0106448Y0377139D01*
X0106317Y0377052D01*
X0106184Y0376968D01*
X0106048Y0376887D01*
X0105910Y0376810D01*
X0105771Y0376737D01*
X0105630Y0376667D01*
X0105487Y0376600D01*
X0105342Y0376537D01*
X0105196Y0376478D01*
X0105048Y0376422D01*
X0104899Y0376371D01*
X0104749Y0376323D01*
X0104598Y0376279D01*
X0104445Y0376238D01*
X0104292Y0376202D01*
X0104137Y0376169D01*
X0103982Y0376140D01*
X0103827Y0376116D01*
X0103670Y0376095D01*
X0103514Y0376078D01*
X0103356Y0376065D01*
X0103199Y0376056D01*
X0103041Y0376051D01*
X0102884Y0376050D01*
X0102726Y0376053D01*
X0102568Y0376060D01*
X0102411Y0376071D01*
X0102254Y0376086D01*
X0102097Y0376105D01*
X0101941Y0376128D01*
X0101786Y0376154D01*
X0101631Y0376185D01*
X0101477Y0376219D01*
X0101324Y0376258D01*
X0101172Y0376300D01*
X0101022Y0376346D01*
X0100872Y0376396D01*
X0100724Y0376450D01*
X0100577Y0376507D01*
X0100431Y0376568D01*
X0100288Y0376633D01*
X0100145Y0376701D01*
X0100005Y0376773D01*
X0099867Y0376848D01*
X0099730Y0376927D01*
X0099595Y0377009D01*
X0099463Y0377095D01*
X0099333Y0377184D01*
X0099205Y0377276D01*
X0099079Y0377372D01*
X0098956Y0377470D01*
X0098836Y0377572D01*
X0098718Y0377677D01*
X0098602Y0377784D01*
X0098490Y0377895D01*
X0098380Y0378008D01*
X0098273Y0378124D01*
X0098169Y0378242D01*
X0098068Y0378364D01*
X0097971Y0378487D01*
X0097876Y0378614D01*
X0097785Y0378742D01*
X0097696Y0378873D01*
X0097612Y0379006D01*
X0097530Y0379141D01*
X0097452Y0379278D01*
X0097378Y0379417D01*
X0097307Y0379558D01*
X0097239Y0379700D01*
X0097176Y0379845D01*
X0097115Y0379990D01*
X0097059Y0380138D01*
X0097006Y0380286D01*
X0096957Y0380436D01*
X0096912Y0380587D01*
X0096871Y0380740D01*
X0096833Y0380893D01*
X0096800Y0381047D01*
X0096770Y0381202D01*
X0096744Y0381357D01*
X0096723Y0381514D01*
X0096705Y0381670D01*
X0096691Y0381827D01*
X0096681Y0381985D01*
X0096675Y0382142D01*
X0096673Y0382300D01*
X0471673Y0381300D02*
X0471675Y0381458D01*
X0471681Y0381615D01*
X0471691Y0381773D01*
X0471705Y0381930D01*
X0471723Y0382086D01*
X0471744Y0382243D01*
X0471770Y0382398D01*
X0471800Y0382553D01*
X0471833Y0382707D01*
X0471871Y0382860D01*
X0471912Y0383013D01*
X0471957Y0383164D01*
X0472006Y0383314D01*
X0472059Y0383462D01*
X0472115Y0383610D01*
X0472176Y0383755D01*
X0472239Y0383900D01*
X0472307Y0384042D01*
X0472378Y0384183D01*
X0472452Y0384322D01*
X0472530Y0384459D01*
X0472612Y0384594D01*
X0472696Y0384727D01*
X0472785Y0384858D01*
X0472876Y0384986D01*
X0472971Y0385113D01*
X0473068Y0385236D01*
X0473169Y0385358D01*
X0473273Y0385476D01*
X0473380Y0385592D01*
X0473490Y0385705D01*
X0473602Y0385816D01*
X0473718Y0385923D01*
X0473836Y0386028D01*
X0473956Y0386130D01*
X0474079Y0386228D01*
X0474205Y0386324D01*
X0474333Y0386416D01*
X0474463Y0386505D01*
X0474595Y0386591D01*
X0474730Y0386673D01*
X0474867Y0386752D01*
X0475005Y0386827D01*
X0475145Y0386899D01*
X0475288Y0386967D01*
X0475431Y0387032D01*
X0475577Y0387093D01*
X0475724Y0387150D01*
X0475872Y0387204D01*
X0476022Y0387254D01*
X0476172Y0387300D01*
X0476324Y0387342D01*
X0476477Y0387381D01*
X0476631Y0387415D01*
X0476786Y0387446D01*
X0476941Y0387472D01*
X0477097Y0387495D01*
X0477254Y0387514D01*
X0477411Y0387529D01*
X0477568Y0387540D01*
X0477726Y0387547D01*
X0477884Y0387550D01*
X0478041Y0387549D01*
X0478199Y0387544D01*
X0478356Y0387535D01*
X0478514Y0387522D01*
X0478670Y0387505D01*
X0478827Y0387484D01*
X0478982Y0387460D01*
X0479137Y0387431D01*
X0479292Y0387398D01*
X0479445Y0387362D01*
X0479598Y0387321D01*
X0479749Y0387277D01*
X0479899Y0387229D01*
X0480048Y0387178D01*
X0480196Y0387122D01*
X0480342Y0387063D01*
X0480487Y0387000D01*
X0480630Y0386933D01*
X0480771Y0386863D01*
X0480910Y0386790D01*
X0481048Y0386713D01*
X0481184Y0386632D01*
X0481317Y0386548D01*
X0481448Y0386461D01*
X0481577Y0386370D01*
X0481704Y0386276D01*
X0481829Y0386179D01*
X0481950Y0386079D01*
X0482070Y0385976D01*
X0482186Y0385870D01*
X0482300Y0385761D01*
X0482412Y0385649D01*
X0482520Y0385535D01*
X0482625Y0385417D01*
X0482728Y0385297D01*
X0482827Y0385175D01*
X0482923Y0385050D01*
X0483016Y0384922D01*
X0483106Y0384793D01*
X0483192Y0384661D01*
X0483276Y0384527D01*
X0483355Y0384391D01*
X0483432Y0384253D01*
X0483504Y0384113D01*
X0483573Y0383971D01*
X0483639Y0383828D01*
X0483701Y0383683D01*
X0483759Y0383536D01*
X0483814Y0383388D01*
X0483865Y0383239D01*
X0483912Y0383088D01*
X0483955Y0382937D01*
X0483994Y0382784D01*
X0484030Y0382630D01*
X0484061Y0382476D01*
X0484089Y0382321D01*
X0484113Y0382165D01*
X0484133Y0382008D01*
X0484149Y0381851D01*
X0484161Y0381694D01*
X0484169Y0381537D01*
X0484173Y0381379D01*
X0484173Y0381221D01*
X0484169Y0381063D01*
X0484161Y0380906D01*
X0484149Y0380749D01*
X0484133Y0380592D01*
X0484113Y0380435D01*
X0484089Y0380279D01*
X0484061Y0380124D01*
X0484030Y0379970D01*
X0483994Y0379816D01*
X0483955Y0379663D01*
X0483912Y0379512D01*
X0483865Y0379361D01*
X0483814Y0379212D01*
X0483759Y0379064D01*
X0483701Y0378917D01*
X0483639Y0378772D01*
X0483573Y0378629D01*
X0483504Y0378487D01*
X0483432Y0378347D01*
X0483355Y0378209D01*
X0483276Y0378073D01*
X0483192Y0377939D01*
X0483106Y0377807D01*
X0483016Y0377678D01*
X0482923Y0377550D01*
X0482827Y0377425D01*
X0482728Y0377303D01*
X0482625Y0377183D01*
X0482520Y0377065D01*
X0482412Y0376951D01*
X0482300Y0376839D01*
X0482186Y0376730D01*
X0482070Y0376624D01*
X0481950Y0376521D01*
X0481829Y0376421D01*
X0481704Y0376324D01*
X0481577Y0376230D01*
X0481448Y0376139D01*
X0481317Y0376052D01*
X0481184Y0375968D01*
X0481048Y0375887D01*
X0480910Y0375810D01*
X0480771Y0375737D01*
X0480630Y0375667D01*
X0480487Y0375600D01*
X0480342Y0375537D01*
X0480196Y0375478D01*
X0480048Y0375422D01*
X0479899Y0375371D01*
X0479749Y0375323D01*
X0479598Y0375279D01*
X0479445Y0375238D01*
X0479292Y0375202D01*
X0479137Y0375169D01*
X0478982Y0375140D01*
X0478827Y0375116D01*
X0478670Y0375095D01*
X0478514Y0375078D01*
X0478356Y0375065D01*
X0478199Y0375056D01*
X0478041Y0375051D01*
X0477884Y0375050D01*
X0477726Y0375053D01*
X0477568Y0375060D01*
X0477411Y0375071D01*
X0477254Y0375086D01*
X0477097Y0375105D01*
X0476941Y0375128D01*
X0476786Y0375154D01*
X0476631Y0375185D01*
X0476477Y0375219D01*
X0476324Y0375258D01*
X0476172Y0375300D01*
X0476022Y0375346D01*
X0475872Y0375396D01*
X0475724Y0375450D01*
X0475577Y0375507D01*
X0475431Y0375568D01*
X0475288Y0375633D01*
X0475145Y0375701D01*
X0475005Y0375773D01*
X0474867Y0375848D01*
X0474730Y0375927D01*
X0474595Y0376009D01*
X0474463Y0376095D01*
X0474333Y0376184D01*
X0474205Y0376276D01*
X0474079Y0376372D01*
X0473956Y0376470D01*
X0473836Y0376572D01*
X0473718Y0376677D01*
X0473602Y0376784D01*
X0473490Y0376895D01*
X0473380Y0377008D01*
X0473273Y0377124D01*
X0473169Y0377242D01*
X0473068Y0377364D01*
X0472971Y0377487D01*
X0472876Y0377614D01*
X0472785Y0377742D01*
X0472696Y0377873D01*
X0472612Y0378006D01*
X0472530Y0378141D01*
X0472452Y0378278D01*
X0472378Y0378417D01*
X0472307Y0378558D01*
X0472239Y0378700D01*
X0472176Y0378845D01*
X0472115Y0378990D01*
X0472059Y0379138D01*
X0472006Y0379286D01*
X0471957Y0379436D01*
X0471912Y0379587D01*
X0471871Y0379740D01*
X0471833Y0379893D01*
X0471800Y0380047D01*
X0471770Y0380202D01*
X0471744Y0380357D01*
X0471723Y0380514D01*
X0471705Y0380670D01*
X0471691Y0380827D01*
X0471681Y0380985D01*
X0471675Y0381142D01*
X0471673Y0381300D01*
X0471673Y0311800D02*
X0471675Y0311958D01*
X0471681Y0312115D01*
X0471691Y0312273D01*
X0471705Y0312430D01*
X0471723Y0312586D01*
X0471744Y0312743D01*
X0471770Y0312898D01*
X0471800Y0313053D01*
X0471833Y0313207D01*
X0471871Y0313360D01*
X0471912Y0313513D01*
X0471957Y0313664D01*
X0472006Y0313814D01*
X0472059Y0313962D01*
X0472115Y0314110D01*
X0472176Y0314255D01*
X0472239Y0314400D01*
X0472307Y0314542D01*
X0472378Y0314683D01*
X0472452Y0314822D01*
X0472530Y0314959D01*
X0472612Y0315094D01*
X0472696Y0315227D01*
X0472785Y0315358D01*
X0472876Y0315486D01*
X0472971Y0315613D01*
X0473068Y0315736D01*
X0473169Y0315858D01*
X0473273Y0315976D01*
X0473380Y0316092D01*
X0473490Y0316205D01*
X0473602Y0316316D01*
X0473718Y0316423D01*
X0473836Y0316528D01*
X0473956Y0316630D01*
X0474079Y0316728D01*
X0474205Y0316824D01*
X0474333Y0316916D01*
X0474463Y0317005D01*
X0474595Y0317091D01*
X0474730Y0317173D01*
X0474867Y0317252D01*
X0475005Y0317327D01*
X0475145Y0317399D01*
X0475288Y0317467D01*
X0475431Y0317532D01*
X0475577Y0317593D01*
X0475724Y0317650D01*
X0475872Y0317704D01*
X0476022Y0317754D01*
X0476172Y0317800D01*
X0476324Y0317842D01*
X0476477Y0317881D01*
X0476631Y0317915D01*
X0476786Y0317946D01*
X0476941Y0317972D01*
X0477097Y0317995D01*
X0477254Y0318014D01*
X0477411Y0318029D01*
X0477568Y0318040D01*
X0477726Y0318047D01*
X0477884Y0318050D01*
X0478041Y0318049D01*
X0478199Y0318044D01*
X0478356Y0318035D01*
X0478514Y0318022D01*
X0478670Y0318005D01*
X0478827Y0317984D01*
X0478982Y0317960D01*
X0479137Y0317931D01*
X0479292Y0317898D01*
X0479445Y0317862D01*
X0479598Y0317821D01*
X0479749Y0317777D01*
X0479899Y0317729D01*
X0480048Y0317678D01*
X0480196Y0317622D01*
X0480342Y0317563D01*
X0480487Y0317500D01*
X0480630Y0317433D01*
X0480771Y0317363D01*
X0480910Y0317290D01*
X0481048Y0317213D01*
X0481184Y0317132D01*
X0481317Y0317048D01*
X0481448Y0316961D01*
X0481577Y0316870D01*
X0481704Y0316776D01*
X0481829Y0316679D01*
X0481950Y0316579D01*
X0482070Y0316476D01*
X0482186Y0316370D01*
X0482300Y0316261D01*
X0482412Y0316149D01*
X0482520Y0316035D01*
X0482625Y0315917D01*
X0482728Y0315797D01*
X0482827Y0315675D01*
X0482923Y0315550D01*
X0483016Y0315422D01*
X0483106Y0315293D01*
X0483192Y0315161D01*
X0483276Y0315027D01*
X0483355Y0314891D01*
X0483432Y0314753D01*
X0483504Y0314613D01*
X0483573Y0314471D01*
X0483639Y0314328D01*
X0483701Y0314183D01*
X0483759Y0314036D01*
X0483814Y0313888D01*
X0483865Y0313739D01*
X0483912Y0313588D01*
X0483955Y0313437D01*
X0483994Y0313284D01*
X0484030Y0313130D01*
X0484061Y0312976D01*
X0484089Y0312821D01*
X0484113Y0312665D01*
X0484133Y0312508D01*
X0484149Y0312351D01*
X0484161Y0312194D01*
X0484169Y0312037D01*
X0484173Y0311879D01*
X0484173Y0311721D01*
X0484169Y0311563D01*
X0484161Y0311406D01*
X0484149Y0311249D01*
X0484133Y0311092D01*
X0484113Y0310935D01*
X0484089Y0310779D01*
X0484061Y0310624D01*
X0484030Y0310470D01*
X0483994Y0310316D01*
X0483955Y0310163D01*
X0483912Y0310012D01*
X0483865Y0309861D01*
X0483814Y0309712D01*
X0483759Y0309564D01*
X0483701Y0309417D01*
X0483639Y0309272D01*
X0483573Y0309129D01*
X0483504Y0308987D01*
X0483432Y0308847D01*
X0483355Y0308709D01*
X0483276Y0308573D01*
X0483192Y0308439D01*
X0483106Y0308307D01*
X0483016Y0308178D01*
X0482923Y0308050D01*
X0482827Y0307925D01*
X0482728Y0307803D01*
X0482625Y0307683D01*
X0482520Y0307565D01*
X0482412Y0307451D01*
X0482300Y0307339D01*
X0482186Y0307230D01*
X0482070Y0307124D01*
X0481950Y0307021D01*
X0481829Y0306921D01*
X0481704Y0306824D01*
X0481577Y0306730D01*
X0481448Y0306639D01*
X0481317Y0306552D01*
X0481184Y0306468D01*
X0481048Y0306387D01*
X0480910Y0306310D01*
X0480771Y0306237D01*
X0480630Y0306167D01*
X0480487Y0306100D01*
X0480342Y0306037D01*
X0480196Y0305978D01*
X0480048Y0305922D01*
X0479899Y0305871D01*
X0479749Y0305823D01*
X0479598Y0305779D01*
X0479445Y0305738D01*
X0479292Y0305702D01*
X0479137Y0305669D01*
X0478982Y0305640D01*
X0478827Y0305616D01*
X0478670Y0305595D01*
X0478514Y0305578D01*
X0478356Y0305565D01*
X0478199Y0305556D01*
X0478041Y0305551D01*
X0477884Y0305550D01*
X0477726Y0305553D01*
X0477568Y0305560D01*
X0477411Y0305571D01*
X0477254Y0305586D01*
X0477097Y0305605D01*
X0476941Y0305628D01*
X0476786Y0305654D01*
X0476631Y0305685D01*
X0476477Y0305719D01*
X0476324Y0305758D01*
X0476172Y0305800D01*
X0476022Y0305846D01*
X0475872Y0305896D01*
X0475724Y0305950D01*
X0475577Y0306007D01*
X0475431Y0306068D01*
X0475288Y0306133D01*
X0475145Y0306201D01*
X0475005Y0306273D01*
X0474867Y0306348D01*
X0474730Y0306427D01*
X0474595Y0306509D01*
X0474463Y0306595D01*
X0474333Y0306684D01*
X0474205Y0306776D01*
X0474079Y0306872D01*
X0473956Y0306970D01*
X0473836Y0307072D01*
X0473718Y0307177D01*
X0473602Y0307284D01*
X0473490Y0307395D01*
X0473380Y0307508D01*
X0473273Y0307624D01*
X0473169Y0307742D01*
X0473068Y0307864D01*
X0472971Y0307987D01*
X0472876Y0308114D01*
X0472785Y0308242D01*
X0472696Y0308373D01*
X0472612Y0308506D01*
X0472530Y0308641D01*
X0472452Y0308778D01*
X0472378Y0308917D01*
X0472307Y0309058D01*
X0472239Y0309200D01*
X0472176Y0309345D01*
X0472115Y0309490D01*
X0472059Y0309638D01*
X0472006Y0309786D01*
X0471957Y0309936D01*
X0471912Y0310087D01*
X0471871Y0310240D01*
X0471833Y0310393D01*
X0471800Y0310547D01*
X0471770Y0310702D01*
X0471744Y0310857D01*
X0471723Y0311014D01*
X0471705Y0311170D01*
X0471691Y0311327D01*
X0471681Y0311485D01*
X0471675Y0311642D01*
X0471673Y0311800D01*
D11*
X0445523Y0251800D02*
X0440323Y0251800D01*
X0440323Y0241800D02*
X0445523Y0241800D01*
X0445523Y0231800D02*
X0440323Y0231800D01*
X0440323Y0221800D02*
X0445523Y0221800D01*
X0445523Y0211800D02*
X0440323Y0211800D01*
X0440323Y0201800D02*
X0445523Y0201800D01*
X0445523Y0191800D02*
X0440323Y0191800D01*
X0440323Y0181800D02*
X0445523Y0181800D01*
X0445523Y0171800D02*
X0440323Y0171800D01*
X0440323Y0161800D02*
X0445523Y0161800D01*
X0445523Y0151800D02*
X0440323Y0151800D01*
X0440323Y0141800D02*
X0445523Y0141800D01*
X0445523Y0131800D02*
X0440323Y0131800D01*
X0440323Y0121800D02*
X0445523Y0121800D01*
X0415523Y0121800D02*
X0410323Y0121800D01*
X0410323Y0131800D02*
X0415523Y0131800D01*
X0415523Y0141800D02*
X0410323Y0141800D01*
X0410323Y0151800D02*
X0415523Y0151800D01*
X0415523Y0161800D02*
X0410323Y0161800D01*
X0410323Y0171800D02*
X0415523Y0171800D01*
X0415523Y0181800D02*
X0410323Y0181800D01*
X0410323Y0191800D02*
X0415523Y0191800D01*
X0415523Y0201800D02*
X0410323Y0201800D01*
X0410323Y0211800D02*
X0415523Y0211800D01*
X0415523Y0221800D02*
X0410323Y0221800D01*
X0410323Y0231800D02*
X0415523Y0231800D01*
X0415523Y0241800D02*
X0410323Y0241800D01*
X0410323Y0251800D02*
X0415523Y0251800D01*
X0305523Y0251800D02*
X0300323Y0251800D01*
X0300323Y0241800D02*
X0305523Y0241800D01*
X0305523Y0231800D02*
X0300323Y0231800D01*
X0300323Y0221800D02*
X0305523Y0221800D01*
X0305523Y0211800D02*
X0300323Y0211800D01*
X0300323Y0201800D02*
X0305523Y0201800D01*
X0305523Y0191800D02*
X0300323Y0191800D01*
X0300323Y0181800D02*
X0305523Y0181800D01*
X0305523Y0171800D02*
X0300323Y0171800D01*
X0300323Y0161800D02*
X0305523Y0161800D01*
X0305523Y0151800D02*
X0300323Y0151800D01*
X0300323Y0141800D02*
X0305523Y0141800D01*
X0305523Y0131800D02*
X0300323Y0131800D01*
X0275523Y0131800D02*
X0270323Y0131800D01*
X0270323Y0141800D02*
X0275523Y0141800D01*
X0275523Y0151800D02*
X0270323Y0151800D01*
X0270323Y0161800D02*
X0275523Y0161800D01*
X0275523Y0171800D02*
X0270323Y0171800D01*
X0270323Y0181800D02*
X0275523Y0181800D01*
X0275523Y0191800D02*
X0270323Y0191800D01*
X0270323Y0201800D02*
X0275523Y0201800D01*
X0275523Y0211800D02*
X0270323Y0211800D01*
X0270323Y0221800D02*
X0275523Y0221800D01*
X0275523Y0231800D02*
X0270323Y0231800D01*
X0270323Y0241800D02*
X0275523Y0241800D01*
X0275523Y0251800D02*
X0270323Y0251800D01*
X0270323Y0261800D02*
X0275523Y0261800D01*
X0300323Y0261800D02*
X0305523Y0261800D01*
D12*
X0112053Y0259418D03*
X0112053Y0256859D03*
X0112053Y0254300D03*
X0112053Y0251741D03*
X0112053Y0249182D03*
D13*
X0112053Y0244457D03*
X0112053Y0264143D03*
D14*
X0101423Y0268080D03*
X0101423Y0240520D03*
D15*
X0122923Y0216800D03*
X0132923Y0216800D03*
X0142923Y0216800D03*
X0152923Y0216800D03*
X0217923Y0221800D03*
X0217923Y0231800D03*
X0217923Y0241800D03*
X0217923Y0251800D03*
X0217923Y0261800D03*
X0262923Y0311800D03*
X0262923Y0321800D03*
X0247923Y0361800D03*
X0247923Y0371800D03*
X0412923Y0291800D03*
X0427923Y0291800D03*
X0442923Y0291800D03*
X0397923Y0241800D03*
X0397923Y0231800D03*
X0397923Y0221800D03*
X0397923Y0211800D03*
X0397923Y0201800D03*
X0397923Y0191800D03*
X0397923Y0181800D03*
X0292923Y0086800D03*
X0282923Y0086800D03*
X0282923Y0076800D03*
X0292923Y0076800D03*
X0292923Y0066800D03*
X0282923Y0066800D03*
X0282923Y0056800D03*
X0292923Y0056800D03*
X0292923Y0046800D03*
X0282923Y0046800D03*
X0282923Y0036800D03*
X0292923Y0036800D03*
X0292923Y0026800D03*
X0282923Y0026800D03*
X0282923Y0016800D03*
X0292923Y0016800D03*
X0312923Y0011800D03*
X0322923Y0011800D03*
X0332923Y0011800D03*
X0342923Y0011800D03*
X0352923Y0011800D03*
X0352923Y0021800D03*
X0342923Y0021800D03*
X0332923Y0021800D03*
X0322923Y0021800D03*
X0312923Y0021800D03*
X0312923Y0031800D03*
X0312923Y0041800D03*
X0322923Y0041800D03*
X0322923Y0031800D03*
X0332923Y0031800D03*
X0332923Y0041800D03*
X0342923Y0041800D03*
X0342923Y0031800D03*
X0352923Y0031800D03*
X0352923Y0041800D03*
X0352923Y0051800D03*
X0342923Y0051800D03*
X0332923Y0051800D03*
X0322923Y0051800D03*
X0312923Y0051800D03*
X0312923Y0061800D03*
X0322923Y0061800D03*
X0332923Y0061800D03*
X0342923Y0061800D03*
X0352923Y0061800D03*
X0352923Y0071800D03*
X0342923Y0071800D03*
X0332923Y0071800D03*
X0322923Y0071800D03*
X0312923Y0071800D03*
X0312923Y0081800D03*
X0322923Y0081800D03*
X0332923Y0081800D03*
X0342923Y0081800D03*
X0352923Y0081800D03*
X0367923Y0081800D03*
X0367923Y0071800D03*
X0377923Y0071800D03*
X0377923Y0081800D03*
X0387923Y0081800D03*
X0387923Y0071800D03*
X0397923Y0071800D03*
X0397923Y0081800D03*
X0407923Y0081800D03*
X0407923Y0071800D03*
X0407923Y0061800D03*
X0397923Y0061800D03*
X0387923Y0061800D03*
X0377923Y0061800D03*
X0367923Y0061800D03*
X0367923Y0051800D03*
X0377923Y0051800D03*
X0387923Y0051800D03*
X0397923Y0051800D03*
X0407923Y0051800D03*
X0407923Y0041800D03*
X0397923Y0041800D03*
X0387923Y0041800D03*
X0377923Y0041800D03*
X0367923Y0041800D03*
X0367923Y0031800D03*
X0377923Y0031800D03*
X0387923Y0031800D03*
X0397923Y0031800D03*
X0407923Y0031800D03*
X0407923Y0021800D03*
X0397923Y0021800D03*
X0387923Y0021800D03*
X0377923Y0021800D03*
X0367923Y0021800D03*
X0367923Y0011800D03*
X0377923Y0011800D03*
X0387923Y0011800D03*
X0397923Y0011800D03*
X0407923Y0011800D03*
X0432923Y0011800D03*
X0432923Y0021800D03*
X0432923Y0031800D03*
X0432923Y0041800D03*
X0432923Y0051800D03*
X0432923Y0061800D03*
X0432923Y0071800D03*
X0432923Y0081800D03*
X0447923Y0081800D03*
X0447923Y0071800D03*
X0447923Y0061800D03*
X0447923Y0051800D03*
X0447923Y0041800D03*
X0447923Y0031800D03*
X0447923Y0021800D03*
X0447923Y0011800D03*
X0212923Y0106800D03*
X0182923Y0096800D03*
X0142923Y0091800D03*
X0142923Y0101800D03*
X0142923Y0081800D03*
X0142923Y0071800D03*
X0142923Y0061800D03*
X0142923Y0051800D03*
X0142923Y0041800D03*
X0110423Y0046300D03*
X0110423Y0056300D03*
X0110423Y0066300D03*
X0110423Y0076300D03*
X0110423Y0086300D03*
X0110423Y0096300D03*
X0102923Y0131800D03*
X0102923Y0141800D03*
X0182923Y0046800D03*
D16*
X0102923Y0186957D03*
X0102923Y0196800D03*
X0102923Y0206643D03*
D17*
X0142923Y0226800D03*
X0172923Y0246800D03*
X0142923Y0266800D03*
X0127923Y0266800D03*
X0127923Y0256800D03*
X0172923Y0286800D03*
X0322923Y0261800D03*
X0322923Y0251800D03*
X0397923Y0171800D03*
X0397923Y0161800D03*
X0384923Y0146800D03*
X0372923Y0147300D03*
X0337923Y0136800D03*
X0322923Y0136800D03*
X0322923Y0096800D03*
X0337923Y0096800D03*
X0372923Y0107300D03*
X0384923Y0106800D03*
X0422923Y0106800D03*
X0462923Y0106800D03*
X0462923Y0121800D03*
X0462923Y0131800D03*
X0257923Y0131800D03*
X0257923Y0141800D03*
X0327923Y0351800D03*
X0367923Y0351800D03*
D18*
X0368081Y0316800D03*
X0387766Y0316800D03*
X0312923Y0311800D03*
X0312923Y0301800D03*
X0312923Y0321800D03*
X0312923Y0331800D03*
X0312923Y0341800D03*
X0312923Y0351800D03*
X0312923Y0361800D03*
X0282923Y0361800D03*
X0282923Y0351800D03*
X0282923Y0341800D03*
X0282923Y0331800D03*
X0282923Y0321800D03*
X0282923Y0311800D03*
X0282923Y0301800D03*
X0202766Y0256800D03*
X0183081Y0256800D03*
D19*
X0332923Y0186800D03*
D20*
X0332923Y0146800D03*
D21*
X0202923Y0126800D03*
X0192923Y0126800D03*
X0192923Y0116800D03*
X0202923Y0116800D03*
X0202923Y0106800D03*
X0192923Y0106800D03*
X0192923Y0096800D03*
X0202923Y0096800D03*
X0202923Y0086800D03*
X0192923Y0086800D03*
X0192923Y0076800D03*
X0202923Y0076800D03*
X0202923Y0066800D03*
X0192923Y0066800D03*
X0192923Y0056800D03*
X0202923Y0056800D03*
X0202923Y0046800D03*
X0192923Y0046800D03*
X0192923Y0036800D03*
X0202923Y0036800D03*
X0202923Y0026800D03*
X0192923Y0026800D03*
D22*
X0197923Y0014300D03*
X0209923Y0014300D03*
X0182923Y0014300D03*
X0170923Y0014300D03*
D23*
X0177923Y0021800D02*
X0177923Y0036800D01*
X0182923Y0046800D02*
X0192923Y0046800D01*
X0172923Y0056800D02*
X0172923Y0101800D01*
X0177923Y0106800D01*
X0177923Y0186800D01*
X0172923Y0196800D02*
X0167923Y0196800D01*
X0167923Y0086800D01*
X0162923Y0076800D02*
X0162923Y0166800D01*
X0157923Y0181800D02*
X0157923Y0051800D01*
X0152923Y0066800D02*
X0152923Y0031800D01*
X0122923Y0031800D01*
X0122923Y0201800D01*
X0117923Y0196800D02*
X0117923Y0083800D01*
X0110423Y0076300D01*
X0127923Y0081800D02*
X0127923Y0181800D01*
X0132923Y0186800D01*
X0132923Y0176800D02*
X0132923Y0091800D01*
X0136423Y0097800D02*
X0136423Y0210800D01*
X0142923Y0206800D02*
X0142923Y0216800D01*
X0152923Y0226800D01*
X0152923Y0276800D01*
X0177923Y0301800D01*
X0211745Y0301800D01*
X0261745Y0351800D01*
X0282923Y0351800D01*
X0302923Y0346800D02*
X0307923Y0351800D01*
X0312923Y0351800D01*
X0327923Y0351800D01*
X0332923Y0341800D02*
X0312923Y0341800D01*
X0302923Y0346800D02*
X0302923Y0311800D01*
X0312923Y0301800D01*
X0302923Y0291800D01*
X0302923Y0261800D01*
X0322923Y0261800D01*
X0392823Y0191900D01*
X0392823Y0179687D01*
X0397923Y0174587D01*
X0397923Y0171800D01*
X0412923Y0171800D01*
X0422923Y0171800D01*
X0442923Y0151800D01*
X0422923Y0131800D01*
X0422923Y0116800D01*
X0412923Y0106800D01*
X0384923Y0106800D01*
X0373423Y0106800D01*
X0372923Y0107300D01*
X0348423Y0107300D01*
X0337923Y0096800D01*
X0322923Y0096800D01*
X0297923Y0093300D02*
X0272923Y0093300D01*
X0272923Y0036800D01*
X0262923Y0046800D02*
X0262923Y0096800D01*
X0280423Y0096800D02*
X0280423Y0154300D01*
X0272923Y0161800D01*
X0272923Y0171800D02*
X0262923Y0161800D01*
X0257923Y0166800D02*
X0272923Y0181800D01*
X0252923Y0176800D02*
X0252923Y0196800D01*
X0247923Y0201800D02*
X0247923Y0056800D01*
X0237923Y0076800D02*
X0237923Y0161800D01*
X0242923Y0141800D02*
X0242923Y0096800D01*
X0232923Y0086800D02*
X0232923Y0221800D01*
X0247923Y0236800D01*
X0267923Y0236800D01*
X0272923Y0241800D01*
X0262923Y0241800D02*
X0227923Y0241800D01*
X0227923Y0196800D01*
X0225034Y0201300D02*
X0224423Y0201300D01*
X0225034Y0201300D02*
X0225034Y0236800D01*
X0217923Y0221800D02*
X0217923Y0116800D01*
X0222923Y0111800D01*
X0222923Y0101800D01*
X0217923Y0096800D01*
X0217923Y0066800D01*
X0212923Y0096800D02*
X0212923Y0026800D01*
X0272923Y0006800D02*
X0282923Y0016800D01*
X0272923Y0006800D02*
X0107923Y0006800D01*
X0102923Y0011800D01*
X0102923Y0121800D01*
X0112923Y0131800D01*
X0112923Y0186800D01*
X0102923Y0196800D01*
X0112923Y0206800D01*
X0102923Y0206643D02*
X0127423Y0231143D01*
X0127423Y0247300D01*
X0115305Y0259418D01*
X0112053Y0259418D01*
X0112053Y0249182D02*
X0117541Y0249182D01*
X0119923Y0246800D01*
X0127923Y0256800D02*
X0135423Y0249300D01*
X0135423Y0229300D01*
X0122923Y0216800D01*
X0102923Y0186957D02*
X0102923Y0141800D01*
X0136423Y0097800D02*
X0142423Y0091800D01*
X0142923Y0091800D01*
X0182923Y0096800D02*
X0192923Y0096800D01*
X0192923Y0106800D02*
X0182923Y0106800D01*
X0182923Y0151800D01*
X0202923Y0146800D02*
X0202923Y0126800D01*
X0192923Y0126800D02*
X0192923Y0171800D01*
X0160423Y0202300D02*
X0160423Y0231800D01*
X0162923Y0231800D01*
X0172923Y0246800D02*
X0177923Y0251800D01*
X0217923Y0251800D01*
X0264666Y0251800D01*
X0268666Y0255800D01*
X0290180Y0255800D01*
X0296180Y0261800D01*
X0302923Y0261800D01*
X0272923Y0261800D02*
X0217923Y0261800D01*
X0207766Y0261800D01*
X0202766Y0256800D01*
X0172923Y0286643D01*
X0172923Y0286800D01*
X0142923Y0266800D02*
X0127923Y0266800D01*
X0237923Y0221800D02*
X0237923Y0191800D01*
X0242923Y0186800D02*
X0242923Y0211800D01*
X0237923Y0221800D02*
X0242923Y0226800D01*
X0262923Y0241800D02*
X0272923Y0251800D01*
X0302923Y0221800D02*
X0292923Y0211800D01*
X0292923Y0196800D01*
X0287923Y0201800D02*
X0287923Y0146800D01*
X0287923Y0141800D02*
X0287923Y0096800D01*
X0297923Y0093300D02*
X0297923Y0126800D01*
X0302923Y0131800D01*
X0307923Y0136800D01*
X0322923Y0136800D01*
X0327923Y0141800D02*
X0302923Y0141800D01*
X0292923Y0141800D01*
X0302923Y0151800D02*
X0307923Y0156800D01*
X0337923Y0156800D01*
X0327923Y0141800D02*
X0332923Y0136800D01*
X0337923Y0136800D01*
X0358423Y0161800D02*
X0302923Y0161800D01*
X0292923Y0176800D02*
X0296323Y0180200D01*
X0296323Y0185200D01*
X0302923Y0191800D01*
X0296323Y0190200D02*
X0292923Y0186800D01*
X0296323Y0190200D02*
X0296323Y0205200D01*
X0302923Y0211800D01*
X0307923Y0186800D02*
X0332923Y0186800D01*
X0307923Y0186800D02*
X0302923Y0181800D01*
X0272923Y0141800D02*
X0257923Y0141800D01*
X0272923Y0131800D02*
X0272923Y0116800D01*
X0302923Y0121800D02*
X0302923Y0008889D01*
X0399923Y0091800D02*
X0384923Y0106800D01*
X0399923Y0091800D02*
X0437923Y0091800D01*
X0447923Y0081800D01*
X0447923Y0071800D01*
X0447923Y0061800D01*
X0447923Y0051800D01*
X0447923Y0041800D01*
X0447923Y0031800D01*
X0447923Y0021800D01*
X0447923Y0011800D01*
X0462923Y0106800D02*
X0462923Y0121800D01*
X0462923Y0131800D02*
X0465616Y0164108D01*
X0447923Y0181800D01*
X0442923Y0181800D01*
X0442923Y0191800D02*
X0422923Y0191800D01*
X0422523Y0192200D01*
X0422523Y0250457D01*
X0411180Y0261800D01*
X0372923Y0261800D01*
X0322923Y0311800D01*
X0312923Y0311800D01*
X0312923Y0321800D02*
X0327923Y0321800D01*
X0382923Y0266800D01*
X0412923Y0266800D01*
X0427923Y0251800D01*
X0427923Y0201800D01*
X0442923Y0201800D01*
X0442923Y0211800D02*
X0432923Y0211800D01*
X0432923Y0251800D01*
X0412923Y0271800D01*
X0387923Y0271800D01*
X0327923Y0331800D01*
X0312923Y0331800D01*
X0332923Y0341800D02*
X0392923Y0281800D01*
X0457923Y0281800D01*
X0462923Y0276800D01*
X0462923Y0226800D01*
X0457923Y0221800D01*
X0442923Y0221800D01*
X0412923Y0221800D02*
X0397923Y0221800D01*
X0397923Y0211800D02*
X0412923Y0211800D01*
X0412923Y0201800D02*
X0397923Y0201800D01*
X0397923Y0191800D02*
X0412923Y0191800D01*
X0412923Y0181800D02*
X0397923Y0181800D01*
X0407923Y0146800D02*
X0384923Y0146800D01*
X0372923Y0147300D02*
X0358423Y0161800D01*
X0372923Y0147300D02*
X0388423Y0131800D01*
X0412923Y0131800D01*
X0412923Y0141800D02*
X0407923Y0146800D01*
X0412923Y0231800D02*
X0397923Y0231800D01*
X0397923Y0241800D02*
X0412923Y0241800D01*
X0368081Y0316800D02*
X0367923Y0316957D01*
X0367923Y0351800D01*
X0212923Y0106800D02*
X0202923Y0106800D01*
D24*
X0212923Y0096800D03*
X0232923Y0086800D03*
X0237923Y0076800D03*
X0217923Y0066800D03*
X0247923Y0056800D03*
X0262923Y0046800D03*
X0272923Y0036800D03*
X0302923Y0008889D03*
X0212923Y0026800D03*
X0177923Y0021800D03*
X0177923Y0036800D03*
X0157923Y0051800D03*
X0152923Y0066800D03*
X0162923Y0076800D03*
X0167923Y0086800D03*
X0172923Y0056800D03*
X0132923Y0091800D03*
X0127923Y0081800D03*
X0202923Y0146800D03*
X0182923Y0151800D03*
X0162923Y0166800D03*
X0157923Y0181800D03*
X0177923Y0186800D03*
X0172923Y0196800D03*
X0160423Y0202300D03*
X0142923Y0206800D03*
X0136423Y0210800D03*
X0122923Y0201800D03*
X0117923Y0196800D03*
X0112923Y0206800D03*
X0132923Y0186800D03*
X0132923Y0176800D03*
X0192923Y0171800D03*
X0227923Y0196800D03*
X0224423Y0201300D03*
X0237923Y0191800D03*
X0242923Y0186800D03*
X0252923Y0196800D03*
X0247923Y0201800D03*
X0242923Y0211800D03*
X0242923Y0226800D03*
X0225034Y0236800D03*
X0162923Y0231800D03*
X0119923Y0246800D03*
X0237923Y0161800D03*
X0257923Y0166800D03*
X0262923Y0161800D03*
X0252923Y0176800D03*
X0287923Y0201800D03*
X0292923Y0196800D03*
X0292923Y0186800D03*
X0292923Y0176800D03*
X0287923Y0146800D03*
X0287923Y0141800D03*
X0292923Y0141800D03*
X0302923Y0121800D03*
X0287923Y0096800D03*
X0280423Y0096800D03*
X0262923Y0096800D03*
X0242923Y0096800D03*
X0272923Y0116800D03*
X0242923Y0141800D03*
X0337923Y0156800D03*
M02*
